<svg width="101" height="103" viewBox="0 0 101 103" fill="none" xmlns="http://www.w3.org/2000/svg">
<g filter="url(#filter0_d_1546_4368)">
<rect width="100" height="100" rx="50" fill="#36BBFC" shape-rendering="crispEdges"/>
<rect x="0.5" y="0.5" width="99" height="99" rx="49.5" stroke="#374151" shape-rendering="crispEdges"/>
<path d="M70.1055 25.998C67.8499 26.1749 65.685 26.4242 63.5881 26.7303L64.3248 29.514L63.3387 29.7759L62.3526 30.0377L61.5592 27.0499C59.2809 27.4353 57.0934 27.8955 54.9851 28.4134L55.9826 31.3276L54.0557 31.985L53.0129 28.9314C50.7913 29.5367 48.6604 30.2043 46.6316 30.9286L47.8444 33.9867L45.9401 34.7347L44.716 31.6404C42.6418 32.435 40.6469 33.2828 38.754 34.1567L40.1708 37.251L38.312 38.1124L36.9065 35.0521C34.6169 36.1742 32.4633 37.3304 30.3959 38.5092L32.18 41.3088L30.4571 42.3969L28.6322 39.5293C26.8856 40.5494 25.1911 41.5808 23.5725 42.5896C23.1044 43.6891 23.2812 44.8565 23.8445 45.922C24.3489 46.8741 25.1786 47.6335 25.9051 48.0189C38.788 38.5432 56.912 32.9382 74.4466 29.9311C73.4718 28.4815 71.8737 26.8572 70.1055 25.998ZM47.3003 42.9636C45.8495 42.9636 44.3873 42.9863 42.9251 43.0203L42.8911 45.1399L40.8509 45.1172L40.8849 43.077C39.8988 43.0997 38.924 43.1337 37.9379 43.1677C34.7189 44.7545 31.6812 46.4887 28.8907 48.3929C43.9453 45.82 60.199 47.6448 72.9391 50.8072L72.9278 50.7958C72.9505 50.8072 73.0525 50.8185 73.3585 50.4671C73.6759 50.1044 74.0159 49.4697 74.2653 48.7896C74.5146 48.1095 74.6733 47.3728 74.696 46.8401C74.7073 46.5794 74.662 46.398 74.6393 46.296C73.4718 45.922 72.2704 45.5933 71.0349 45.2986C69.0967 44.8225 67.0905 44.4371 65.0276 44.1198L64.3475 46.3187L63.3727 46.0126L62.398 45.7066L62.976 43.8477C61.4345 43.6551 59.8703 43.485 58.2722 43.3604L57.9888 45.5139L55.9712 45.2419L56.2319 43.2243C54.3844 43.111 52.5029 43.0317 50.5987 42.9977L50.6327 44.8792L48.5924 44.9245L48.5584 42.975C48.1391 42.975 47.7197 42.9636 47.3003 42.9636ZM57.7734 50.0931C56.2546 50.4785 54.7811 50.9092 53.353 51.3852L54.5091 53.9242L52.6502 54.7629L51.4261 52.0653C49.3972 52.8134 47.4816 53.6522 45.7021 54.5703L47.0056 56.7125L45.2601 57.7779L43.9113 55.545C42.9365 56.1004 42.007 56.6785 41.1343 57.2792C40.1368 57.9706 39.2074 58.696 38.346 59.4441L40.5449 61.1783L39.2754 62.7878L36.8385 60.861C35.2516 62.4478 33.9935 64.1253 33.1094 65.8595C32.9507 66.1769 32.8034 66.5056 32.6673 66.8343C33.6081 66.6869 34.4922 66.6303 35.3423 66.6416C37.0425 66.6756 38.5613 67.0156 39.9555 67.537C39.9668 67.503 39.9668 67.4577 39.9782 67.4237C40.6242 65.0661 42.2677 63.0259 44.852 61.1783C49.4199 57.9253 57.1274 55.1257 68.598 51.9066C66.1724 51.3852 63.6448 50.9205 61.0378 50.5351L61.3325 51.2832L59.4283 52.0313L58.7142 50.2178C58.3969 50.1724 58.0908 50.1271 57.7734 50.0931ZM35.3196 68.6251C34.2882 68.6138 33.1774 68.7385 31.9419 69.0332C31.4432 71.0961 31.4659 73.2156 32.0779 75.3805C32.1346 75.4372 32.622 75.7773 33.5741 75.9133C34.5716 76.0493 35.875 76.0153 37.1218 75.8566C38.3573 75.6979 39.5474 75.4032 40.2615 75.0972C40.4655 75.0065 40.6129 74.9272 40.7262 74.8478C40.0122 72.9889 39.6495 71.2434 39.6835 69.5886C38.3686 69.0105 36.9518 68.6478 35.3196 68.6251Z" fill="white"/>
</g>
<defs>
<filter id="filter0_d_1546_4368" x="0" y="0" width="101" height="103" filterUnits="userSpaceOnUse" color-interpolation-filters="sRGB">
<feFlood flood-opacity="0" result="BackgroundImageFix"/>
<feColorMatrix in="SourceAlpha" type="matrix" values="0 0 0 0 0 0 0 0 0 0 0 0 0 0 0 0 0 0 127 0" result="hardAlpha"/>
<feOffset dx="1" dy="3"/>
<feComposite in2="hardAlpha" operator="out"/>
<feColorMatrix type="matrix" values="0 0 0 0 0.0705882 0 0 0 0 0.0784314 0 0 0 0 0.113725 0 0 0 1 0"/>
<feBlend mode="normal" in2="BackgroundImageFix" result="effect1_dropShadow_1546_4368"/>
<feBlend mode="normal" in="SourceGraphic" in2="effect1_dropShadow_1546_4368" result="shape"/>
</filter>
</defs>
</svg>
