<svg width="101" height="103" viewBox="0 0 101 103" fill="none" xmlns="http://www.w3.org/2000/svg">
<g filter="url(#filter0_d_1546_4374)">
<rect width="100" height="100" rx="50" fill="#57D081" shape-rendering="crispEdges"/>
<rect x="0.5" y="0.5" width="99" height="99" rx="49.5" stroke="#374151" shape-rendering="crispEdges"/>
<path d="M44.8332 50.5713C44.3232 50.5713 43.8341 50.7739 43.4734 51.1345C43.1128 51.4952 42.9102 51.9843 42.9102 52.4944C42.9102 53.0044 43.1128 53.4935 43.4734 53.8542C43.8341 54.2148 44.3232 54.4174 44.8332 54.4174H55.0896C55.5997 54.4174 56.0888 54.2148 56.4495 53.8542C56.8101 53.4935 57.0127 53.0044 57.0127 52.4944C57.0127 51.9843 56.8101 51.4952 56.4495 51.1345C56.0888 50.7739 55.5997 50.5713 55.0896 50.5713H44.8332Z" fill="white"/>
<path fill-rule="evenodd" clip-rule="evenodd" d="M37 29.1607C37.4307 26.9749 38.6071 25.0065 40.3281 23.5917C42.0492 22.177 44.208 21.4039 46.4359 21.4043H51.5641C53.792 21.4039 55.9508 22.177 57.6719 23.5917C59.3929 25.0065 60.5693 26.9749 61 29.1607C64.6805 30.1061 67.9476 32.2365 70.2971 35.2232C72.6465 38.2098 73.9478 41.8867 74 45.6863V60.1863C73.9992 63.2599 72.9507 66.2414 71.0273 68.6388C69.104 71.0362 66.4208 72.7063 63.4205 73.3735C53.9229 75.4863 44.0771 75.4863 34.5795 73.3735C31.5792 72.7063 28.896 71.0362 26.9727 68.6388C25.0493 66.2414 24.0008 63.2599 24 60.1863V45.6863C24.0522 41.8867 25.3535 38.2098 27.7029 35.2232C30.0524 32.2365 33.3195 30.1061 37 29.1607ZM41.3462 28.3017C41.8386 27.3798 42.5722 26.6089 43.4686 26.0715C44.3651 25.5341 45.3907 25.2503 46.4359 25.2505H51.5641C53.7692 25.2505 55.6846 26.4863 56.6564 28.3017C51.5823 27.5278 46.4202 27.5278 41.3462 28.3017ZM70.1538 46.1761V52.8325C63.4527 55.6323 56.2625 57.074 49 57.074C41.7375 57.074 34.5473 55.6323 27.8462 52.8325V45.7376C27.888 42.6632 28.9811 39.6957 30.9436 37.3287C32.9061 34.9617 35.6198 33.3379 38.6333 32.7274C38.8487 32.6761 38.9513 32.6556 39.0538 32.6325C45.6088 31.2065 52.3938 31.2065 58.9487 32.6325L59.3667 32.7274L59.7949 32.8222C62.7866 33.5303 65.4458 35.241 67.3303 37.6699C69.2149 40.0989 70.2113 43.0997 70.1538 46.1735M27.8462 60.1838V56.9735C38.464 61.0744 50.0448 62.0009 61.1795 59.6402V61.7889C61.1795 62.2989 61.3821 62.7881 61.7427 63.1487C62.1034 63.5094 62.5925 63.712 63.1026 63.712C63.6126 63.712 64.1017 63.5094 64.4624 63.1487C64.823 62.7881 65.0256 62.2989 65.0256 61.7889V58.6889C66.7603 58.1967 68.4715 57.6251 70.1538 56.9761V60.1863C70.1539 62.3852 69.4042 64.5184 68.0286 66.2339C66.6529 67.9494 64.7336 69.1446 62.5872 69.6222C53.6385 71.6094 44.3615 71.6094 35.4128 69.6222C33.2669 69.1441 31.3481 67.9486 29.973 66.2332C28.5979 64.5178 27.8486 62.3849 27.8487 60.1863" fill="white"/>
</g>
<defs>
<filter id="filter0_d_1546_4374" x="0" y="0" width="101" height="103" filterUnits="userSpaceOnUse" color-interpolation-filters="sRGB">
<feFlood flood-opacity="0" result="BackgroundImageFix"/>
<feColorMatrix in="SourceAlpha" type="matrix" values="0 0 0 0 0 0 0 0 0 0 0 0 0 0 0 0 0 0 127 0" result="hardAlpha"/>
<feOffset dx="1" dy="3"/>
<feComposite in2="hardAlpha" operator="out"/>
<feColorMatrix type="matrix" values="0 0 0 0 0.0705882 0 0 0 0 0.0784314 0 0 0 0 0.113725 0 0 0 1 0"/>
<feBlend mode="normal" in2="BackgroundImageFix" result="effect1_dropShadow_1546_4374"/>
<feBlend mode="normal" in="SourceGraphic" in2="effect1_dropShadow_1546_4374" result="shape"/>
</filter>
</defs>
</svg>
