<svg width="101" height="103" viewBox="0 0 101 103" fill="none" xmlns="http://www.w3.org/2000/svg">
<g filter="url(#filter0_d_1546_4412)">
<rect width="100" height="100" rx="50" fill="#E82C2A" shape-rendering="crispEdges"/>
<rect x="0.5" y="0.5" width="99" height="99" rx="49.5" stroke="#374151" shape-rendering="crispEdges"/>
<path d="M53.9993 52.9167C52.823 52.9165 51.8154 52.5023 50.9912 51.6781C50.1669 50.8538 49.7519 49.8452 49.75 48.6671C49.7481 47.4883 50.1634 46.48 50.9918 45.6573C51.8193 44.8355 52.8264 44.4204 53.9992 44.4167C55.1732 44.4129 56.1821 44.8285 57.0114 45.6579C57.8408 46.4873 58.2556 47.4953 58.25 48.6679C58.2443 49.8385 57.8304 50.8459 57.0128 51.6767C56.1932 52.5095 55.1834 52.924 53.9993 52.9167ZM53.9993 52.9167C53.999 52.9167 53.9987 52.9167 53.9984 52.9167L54 52.6667L53.9993 52.9167ZM36.4167 66V66.25H36.6667H54C58.8659 66.25 63.0185 64.535 66.4434 61.1101C69.8684 57.6852 71.5833 53.5326 71.5833 48.6667C71.5833 43.8007 69.8684 39.6481 66.4434 36.2232C63.0185 32.7983 58.8659 31.0833 54 31.0833C49.1341 31.0833 44.9815 32.7983 41.5566 36.2232C38.1316 39.6481 36.4167 43.8007 36.4167 48.6667V66ZM31.5833 71.0833V48.6667C31.5833 42.4208 33.7577 37.1291 38.1101 32.7768C42.4625 28.4244 47.7541 26.25 54 26.25C60.2459 26.25 65.5375 28.4244 69.8899 32.7768C74.2423 37.1291 76.4167 42.4208 76.4167 48.6667C76.4167 54.9125 74.2423 60.2042 69.8899 64.5566C65.5375 68.9089 60.2459 71.0833 54 71.0833H31.5833ZM60.4232 55.0899C58.6479 56.8652 56.5115 57.75 54 57.75C51.4885 57.75 49.3521 56.8652 47.5768 55.0899C45.8014 53.3146 44.9167 51.1782 44.9167 48.6667C44.9167 46.1552 45.8014 44.0188 47.5768 42.2434C49.3521 40.4681 51.4885 39.5833 54 39.5833C56.5115 39.5833 58.6479 40.4681 60.4232 42.2434C62.1985 44.0188 63.0833 46.1552 63.0833 48.6667C63.0833 51.1782 62.1985 53.3146 60.4232 55.0899ZM23.5833 71.0833V58.25H28.4167V71.0833H23.5833Z" fill="white" stroke="#E82C2A" stroke-width="0.5"/>
</g>
<defs>
<filter id="filter0_d_1546_4412" x="0" y="0" width="101" height="103" filterUnits="userSpaceOnUse" color-interpolation-filters="sRGB">
<feFlood flood-opacity="0" result="BackgroundImageFix"/>
<feColorMatrix in="SourceAlpha" type="matrix" values="0 0 0 0 0 0 0 0 0 0 0 0 0 0 0 0 0 0 127 0" result="hardAlpha"/>
<feOffset dx="1" dy="3"/>
<feComposite in2="hardAlpha" operator="out"/>
<feColorMatrix type="matrix" values="0 0 0 0 0.0705882 0 0 0 0 0.0784314 0 0 0 0 0.113725 0 0 0 1 0"/>
<feBlend mode="normal" in2="BackgroundImageFix" result="effect1_dropShadow_1546_4412"/>
<feBlend mode="normal" in="SourceGraphic" in2="effect1_dropShadow_1546_4412" result="shape"/>
</filter>
</defs>
</svg>
