<svg width="325" height="16" viewBox="0 0 325 16" fill="none" xmlns="http://www.w3.org/2000/svg">
<path fill-rule="evenodd" clip-rule="evenodd" d="M57.786 5.85248C54.2374 6.5166 50.907 7.47808 47.9036 8.82614C47.5765 8.97482 47.4773 9.18293 47.4475 9.27214C47.398 9.43074 47.4179 9.57949 47.4972 9.71826C47.5467 9.80747 47.6261 9.91652 47.7946 9.98591C47.9135 10.0355 48.2208 10.0751 48.6272 10.0652C49.321 10.0553 50.3916 9.97599 50.907 9.97599C52.6714 9.99581 54.4357 9.98582 56.2001 10.0156C61.8203 10.1147 62.8015 10.194 70.0275 10.1345C78.4628 10.0651 86.9179 9.94617 95.3631 9.76775C68.5209 11.2546 41.7184 12.9892 15.0546 14.6049C14.7573 14.6247 14.5293 14.8825 14.5491 15.1799C14.559 15.4872 14.8266 15.7152 15.124 15.6953C77.3427 11.9287 140.245 7.48798 202.94 7.20053C206.033 7.26991 209.115 7.33926 212.188 7.40864C230.753 7.84478 249.329 8.37017 267.874 9.18297C273.911 9.45059 279.948 9.74794 285.994 10.0255C287.778 10.1048 289.572 10.1841 291.366 10.2634C292.814 10.3228 296.541 10.5409 297.066 10.5509C297.542 10.5608 297.661 10.1346 297.671 10.1148C297.7 9.976 297.68 9.81734 297.561 9.66865C297.532 9.629 297.452 9.52002 297.274 9.47046C297.244 9.47046 297.106 9.45058 296.818 9.42085C281.91 8.20165 266.963 7.35912 251.985 6.82386C253.997 6.84368 256.01 6.85364 258.022 6.87347C273.534 6.99241 289.087 7.41864 304.589 6.87347C308.118 6.75452 311.657 6.6157 315.175 6.44719C317.544 6.33816 323.64 6.47695 324.503 6.21923C324.899 6.1102 324.988 5.83263 324.998 5.69386C325.008 5.53526 324.979 5.35684 324.8 5.19825C324.721 5.11895 324.473 4.99015 324.007 4.89103C308.792 1.59027 290.99 2.52195 275.497 1.60012C233.42 -0.927491 191.491 0.757654 149.424 2.29404C113.116 3.62228 76.8074 3.69164 40.5189 5.49566C27.2366 6.14986 13.5381 5.39658 0.444093 7.89445C0.146727 7.95393 -0.0416668 8.23136 0.00789405 8.52873C0.0673671 8.82609 0.354844 9.0244 0.65221 8.96493C13.6867 6.47697 27.3358 7.24018 40.5686 6.58598C46.3077 6.29852 52.0468 6.06064 57.786 5.85248ZM170.041 6.58598C147.808 6.23905 125.575 6.06059 103.323 6.16962C88.0578 6.23901 65.8149 3.33485 50.6493 8.88567C50.7583 8.88567 50.8474 8.88567 50.9267 8.88567C52.6911 8.9055 54.4555 8.88559 56.2199 8.92524C61.8302 9.02436 62.8114 9.10365 70.0176 9.04418C88.4443 8.88558 106.921 8.48917 125.337 7.87461C140.255 7.379 155.153 6.9329 170.041 6.58598ZM320.439 5.30727C306.056 2.78957 289.751 3.543 275.428 2.69055C233.39 0.162947 191.491 1.84797 149.464 3.38436C130.68 4.07821 111.907 4.42512 93.1428 4.85134C96.7409 4.99011 100.18 5.08922 103.323 5.0793C135.131 4.92071 166.929 5.34701 198.737 6.02104C218.492 5.72367 238.247 5.61464 258.032 5.77323C273.534 5.90209 289.057 6.31841 304.559 5.78315C308.078 5.66421 311.607 5.52538 315.126 5.35687C316.325 5.30731 318.496 5.31718 320.439 5.30727Z" fill="#E82C2A"/>
</svg>
