<svg width="101" height="103" viewBox="0 0 101 103" fill="none" xmlns="http://www.w3.org/2000/svg">
<g filter="url(#filter0_d_1546_4388)">
<rect width="100" height="100" rx="50" fill="#E82C2A" shape-rendering="crispEdges"/>
<rect x="0.5" y="0.5" width="99" height="99" rx="49.5" stroke="#374151" shape-rendering="crispEdges"/>
<path d="M75 42.5C75 50.785 63.8075 57.5 50 57.5C36.1925 57.5 25 50.785 25 42.5C25 34.215 36.1925 27.5 50 27.5C63.8075 27.5 75 34.215 75 42.5Z" stroke="white" stroke-width="4" stroke-linecap="round" stroke-linejoin="round"/>
<path d="M49.999 37.135C57.499 33.6025 62.499 39.2925 62.499 41.955C62.499 49.88 37.499 49.4675 37.499 39.705C37.499 33.745 42.499 27.5 49.999 27.5" stroke="white" stroke-width="4" stroke-linecap="round" stroke-linejoin="round"/>
<path d="M75 42.5V57.5C75 65.785 63.8075 72.5 50 72.5C36.1925 72.5 25 65.785 25 57.5V42.5" stroke="white" stroke-width="4" stroke-linecap="round" stroke-linejoin="round"/>
</g>
<defs>
<filter id="filter0_d_1546_4388" x="0" y="0" width="101" height="103" filterUnits="userSpaceOnUse" color-interpolation-filters="sRGB">
<feFlood flood-opacity="0" result="BackgroundImageFix"/>
<feColorMatrix in="SourceAlpha" type="matrix" values="0 0 0 0 0 0 0 0 0 0 0 0 0 0 0 0 0 0 127 0" result="hardAlpha"/>
<feOffset dx="1" dy="3"/>
<feComposite in2="hardAlpha" operator="out"/>
<feColorMatrix type="matrix" values="0 0 0 0 0.0705882 0 0 0 0 0.0784314 0 0 0 0 0.113725 0 0 0 1 0"/>
<feBlend mode="normal" in2="BackgroundImageFix" result="effect1_dropShadow_1546_4388"/>
<feBlend mode="normal" in="SourceGraphic" in2="effect1_dropShadow_1546_4388" result="shape"/>
</filter>
</defs>
</svg>
