<svg width="115" height="16" viewBox="0 0 115 16" fill="none" xmlns="http://www.w3.org/2000/svg">
<path fill-rule="evenodd" clip-rule="evenodd" d="M31.0548 9.34198C26.1412 10.7665 20.4682 12.1843 15.0108 12.5383C10.3462 12.8404 5.84067 12.3711 2.15282 10.3744C1.63296 10.0933 0.981959 10.2865 0.700816 10.8068C0.419245 11.3267 0.612957 11.9777 1.13281 12.2593C5.15581 14.4368 10.0612 15.0064 15.1492 14.6764C20.7048 14.3164 26.4802 12.8892 31.4924 11.4441C32.0739 12.6222 33.2782 13.7207 35.3997 14.5311C38.6581 15.7761 43.1071 15.7607 47.7939 15.0591C54.5915 14.0421 61.9038 11.6168 66.6052 9.89354C66.7981 9.82326 67.0852 9.71141 67.4367 9.56398C67.5438 9.80055 67.6638 10.0337 67.7966 10.2626C68.9495 12.2571 70.9895 13.8698 73.0681 14.4458C86.251 18.0981 101.637 13.722 114.164 10.1605C114.73 9.99897 115.06 9.40584 114.901 8.83713C114.738 8.26841 114.147 7.93798 113.577 8.09955C101.401 11.5616 86.4524 15.9295 73.6381 12.3805C72.0609 11.9434 70.5267 10.704 69.6524 9.19026C69.5538 9.0214 69.4681 8.84869 69.3867 8.67341C71.1138 7.81755 73.1452 6.62441 74.2381 5.34727C75.3609 4.03798 75.6395 2.64041 74.6624 1.32041C73.8224 0.191986 72.5495 0.095984 71.2252 0.680984C69.7981 1.30756 68.3281 2.77239 67.8524 3.45982C66.9609 4.74382 66.6781 6.13669 66.8409 7.49484C66.4209 7.67226 66.0798 7.80425 65.8694 7.8814C61.2708 9.56654 54.1235 11.9451 47.4768 12.9398C43.2001 13.5801 39.1377 13.6654 36.1642 12.5297C34.8961 12.045 34.0582 11.4793 33.6035 10.8227C34.5009 10.5544 35.3662 10.2904 36.193 10.0384C37.828 9.53998 41.2321 8.71498 43.6642 7.24456C45.5984 6.07541 46.9098 4.48498 46.8335 2.49127C46.7945 1.46698 46.2018 0.7834 45.2585 0.400257C43.8489 -0.171886 41.4112 0.104966 40.5035 0.297823C37.7504 0.881537 34.0758 3.29783 32.2578 6.02055C31.5322 7.10698 31.1007 8.24355 31.0548 9.34198ZM33.3164 8.67254C34.0942 8.43854 34.846 8.20883 35.5681 7.98854C37.0942 7.52311 40.2845 6.78382 42.5555 5.41068C43.7581 4.68382 44.7399 3.81297 44.6924 2.57312C44.6885 2.47669 44.5929 2.44927 44.5085 2.40984C44.3778 2.34941 44.2282 2.30783 44.0688 2.27526C42.9901 2.05497 41.5411 2.26796 40.9479 2.39396C38.6379 2.88382 35.5651 4.92597 34.0398 7.21068C33.7175 7.69325 33.4608 8.18483 33.3164 8.67254ZM68.9581 6.50826C69.9652 5.99012 71.0195 5.36354 71.8509 4.68168C72.2924 4.31954 72.6652 3.94712 72.9009 3.56055C73.0981 3.24084 73.1752 2.91339 72.9395 2.5971C72.8452 2.46896 72.7038 2.46641 72.5581 2.49041C72.4038 2.51612 72.2452 2.57096 72.0867 2.64168C71.0409 3.10196 69.961 4.17725 69.6138 4.68168C69.2067 5.26668 69.0052 5.88555 68.9581 6.50826Z" fill="#57D081"/>
</svg>
