<svg width="172" height="5" viewBox="0 0 172 5" fill="none" xmlns="http://www.w3.org/2000/svg">
<g clip-path="url(#clip0_1398_5217)">
<path d="M0.703136 3.14354C7.43029 2.87598 14.1739 2.7422 20.9011 2.33382C21.4012 2.30566 22.1432 2.14371 22.4235 1.5241C22.6873 0.939686 22.1981 0.643961 21.7969 0.651002C15.0698 0.784782 8.33713 1.18612 1.60998 1.46073C1.10984 1.48185 0.351389 1.65788 0.0765873 2.27749C-0.187222 2.85486 0.301925 3.17171 0.708632 3.15058L0.703136 3.14354Z" fill="#E82C2A"/>
<path d="M26.7703 2.75609C26.7703 2.75609 26.8198 2.75609 26.8418 2.76313L26.5835 2.72793C26.6549 2.74201 26.7209 2.75609 26.7923 2.78426L26.578 2.69272C26.6824 2.73497 26.7758 2.79834 26.8638 2.87579L26.7099 2.73497C26.8473 2.86171 26.9572 3.01661 27.0452 3.19968L26.9627 3.01661C26.9902 3.07998 27.0122 3.12927 27.0122 3.20672V2.99549C27.0122 3.07998 27.0012 3.15743 26.9737 3.23489L27.0561 3.01661C27.0342 3.07998 27.0012 3.13631 26.9627 3.19264L27.1111 2.98141C27.0836 3.01661 27.0506 3.05182 27.0232 3.08702L27.232 2.88987C27.1826 2.93916 27.0397 3.0307 27.254 2.88987C27.4519 2.76313 27.3749 2.81242 27.3255 2.84059C27.2265 2.88987 27.6937 2.69272 27.5453 2.74201C27.4299 2.78426 27.93 2.65752 27.7322 2.69272C27.5948 2.72089 28.0509 2.69272 27.9355 2.67864C27.9135 2.67864 27.8915 2.67864 27.8696 2.67864L28.1279 2.71385C28.0784 2.70681 28.0289 2.69272 27.9795 2.6716L28.1938 2.75609C28.1444 2.73497 28.1004 2.70681 28.0564 2.6716L28.2103 2.80538C28.1279 2.73497 28.0674 2.63639 28.018 2.53078L28.1004 2.71385C28.0289 2.5519 28.0015 2.37587 27.996 2.18577V2.397C27.996 2.19281 28.0399 1.99566 28.1059 1.80555L28.0289 2.02382C28.0784 1.89708 28.1334 1.78442 28.2103 1.68585L28.0619 1.89708C28.1114 1.83371 28.1608 1.77738 28.2158 1.72105L28.007 1.9182C28.0509 1.87596 28.1004 1.84075 28.1499 1.79851C28.2488 1.72105 27.8805 1.96045 27.9905 1.90412C28.0125 1.89004 28.0344 1.87596 28.0564 1.86892C28.2268 1.77738 27.8805 1.94637 27.8805 1.94637C27.9025 1.93933 27.93 1.92525 27.952 1.9182C27.974 1.91116 28.0015 1.90412 28.0234 1.89708C28.0234 1.89708 27.6607 1.98157 27.8421 1.94637C27.8915 1.93933 27.941 1.92525 27.996 1.92525C28.0839 1.9182 28.2158 1.93229 27.8366 1.93229C27.8641 1.93229 27.886 1.93229 27.9135 1.93229C28.0289 1.93229 28.1444 1.93933 28.2598 1.95341L28.0015 1.9182C28.1114 1.93229 28.2158 1.96045 28.3202 2.0027L28.1059 1.9182C28.1883 1.95341 28.2653 1.99566 28.3367 2.05903L28.1828 1.92525C28.2488 1.98862 28.3092 2.05903 28.3532 2.14352L28.2708 1.96045C28.3147 2.05903 28.3367 2.16464 28.3422 2.28434V2.07311C28.3422 2.17872 28.3202 2.27026 28.2873 2.36883L28.3697 2.15056C28.3257 2.26322 28.2653 2.36179 28.1993 2.46037L28.3477 2.24914C28.2708 2.35475 28.1828 2.45333 28.0894 2.53782L28.2982 2.34067C28.2598 2.37587 28.2158 2.41108 28.1773 2.44629C28.1608 2.46037 28.1444 2.46741 28.1279 2.48149C28.0015 2.57303 28.4082 2.30546 28.2982 2.36883C28.2598 2.38996 28.2158 2.41812 28.1773 2.43924C28.1554 2.45333 28.1334 2.46037 28.1059 2.47445C28.0015 2.52374 28.4686 2.32659 28.3092 2.38292C28.2653 2.397 28.2213 2.41108 28.1828 2.42516C28.0784 2.46037 28.5566 2.34067 28.3972 2.36883C28.3807 2.36883 28.3587 2.37587 28.3422 2.38292C28.3202 2.38292 28.2928 2.38292 28.2708 2.38996C28.1718 2.41108 28.6115 2.38292 28.4686 2.37587C28.4247 2.37587 28.3807 2.37587 28.3367 2.36883L28.595 2.40404C28.5346 2.397 28.4796 2.38292 28.4247 2.35475L28.639 2.44629C28.584 2.42516 28.5401 2.38996 28.4906 2.35475L28.6445 2.49557C28.5785 2.43924 28.5291 2.36883 28.4851 2.2773L28.5676 2.46037C28.5181 2.34771 28.4961 2.23505 28.4906 2.10831V2.31955C28.4906 2.22097 28.5126 2.12944 28.5401 2.0379L28.4576 2.25618C28.4851 2.17872 28.5236 2.10831 28.5676 2.0379L28.4192 2.24914C28.4576 2.19281 28.4961 2.14352 28.5456 2.10127L28.3367 2.29842C28.4247 2.22097 28.5181 2.19985 28.1938 2.37587C28.3422 2.29138 27.8751 2.49557 28.0015 2.45333C28.0564 2.4322 28.0234 2.43924 27.8915 2.48149C27.7761 2.5167 27.6607 2.53078 27.5398 2.52374C27.5728 2.52374 27.6112 2.52374 27.6442 2.52374L27.3859 2.48853C27.4409 2.49557 27.4958 2.5167 27.5508 2.53782L27.3364 2.44629C27.4134 2.48149 27.4848 2.53078 27.5508 2.58711L27.3969 2.44629C27.5783 2.60823 27.6937 2.83355 27.8256 3.05182C27.941 3.24897 28.2653 3.3053 28.4302 3.3053C28.683 3.3053 28.9248 3.24897 29.1666 3.14335C29.3755 3.05182 29.6118 2.92508 29.7712 2.72089C29.9086 2.54486 30.0185 2.36179 29.991 2.10127C29.9471 1.65769 29.6338 1.31971 29.359 1.10144C28.8808 0.728263 28.2378 0.770509 27.7157 0.939495C27.4354 1.03103 27.1331 1.18593 26.8913 1.39717C26.6824 1.58023 26.4571 1.80555 26.3252 2.09423C26.1713 2.43924 26.0888 2.86171 26.2427 3.23489C26.3032 3.38275 26.3636 3.50949 26.4681 3.6151C26.6439 3.79817 26.8088 3.88267 27.0287 3.96012C27.3584 4.07277 27.7541 4.06573 28.0839 3.99532C28.8533 3.83338 29.6613 3.45316 30.2054 2.71385C30.4802 2.34067 30.7385 1.87596 30.6506 1.3338C30.5846 0.939495 30.2933 0.636729 30.013 0.495907C29.6503 0.312839 29.2601 0.242428 28.8698 0.235387C28.4302 0.228346 27.9685 0.291716 27.5508 0.460702C27.0726 0.657852 26.567 0.925413 26.2153 1.40421C25.9789 1.72105 25.7811 2.08719 25.7151 2.52374C25.6656 2.84059 25.6766 3.21376 25.7976 3.50245C25.8635 3.66439 25.935 3.82634 26.0504 3.93899C26.2262 4.12206 26.3966 4.22064 26.6165 4.29105C27.1551 4.46003 27.7871 4.31921 28.2818 4.03757C28.7105 3.79113 29.1391 3.43204 29.304 2.84059C29.3535 2.66456 29.3645 2.43924 29.304 2.27026C29.2216 2.05903 29.1227 1.85484 28.9798 1.69289C28.6115 1.27043 28.1608 1.10848 27.6772 1.07328C27.3859 1.05215 27.0342 1.15777 26.7649 1.30563C26.5615 1.41829 26.2592 1.62248 26.1438 1.89004C26.0559 2.08015 26.0009 2.32659 26.1438 2.50261C26.3087 2.70681 26.5505 2.74905 26.7703 2.76313V2.75609Z" fill="#E82C2A"/>
<path d="M36.1644 3.41148C41.7978 3.25658 47.4422 3.18617 53.0757 2.95381C53.5758 2.93269 54.3233 2.75666 54.6036 2.14409C54.8839 1.53152 54.3782 1.271 53.977 1.271C48.3436 1.34141 42.7047 1.56672 37.0712 1.72163C36.5711 1.73571 35.8126 1.91878 35.5378 2.53839C35.263 3.15801 35.7632 3.42557 36.1699 3.41148H36.1644Z" fill="#E82C2A"/>
<path d="M62.7808 2.00288C62.8907 1.97472 62.9951 2.01697 62.6873 2.00288C62.5169 1.97472 62.473 1.96768 62.5499 1.98176C62.5774 1.98176 62.5994 1.99584 62.6214 2.00288L62.506 1.9536C62.5389 1.96768 62.5664 1.9888 62.5994 2.00288C62.6434 2.03105 62.6873 2.06625 62.7258 2.10146L62.5719 1.96064C62.6653 2.05217 62.7423 2.15779 62.8082 2.29157V1.67899C62.7313 1.84094 62.6489 1.99584 62.5554 2.15075C62.5115 2.2282 62.462 2.29861 62.418 2.36902C62.3576 2.46055 62.3686 2.43943 62.4565 2.31269C62.429 2.3479 62.407 2.3831 62.3795 2.41127C62.2751 2.54505 62.1652 2.67179 62.0498 2.79148C62.0223 2.81965 61.9893 2.84781 61.9618 2.87598C61.8794 2.95343 61.9014 2.93231 62.0388 2.80557C61.9838 2.84077 61.9289 2.8971 61.8794 2.93935C61.8299 2.98159 61.7695 3.02384 61.7145 3.06609C61.4617 3.24915 61.9069 2.96047 61.731 3.05904C61.6651 3.09425 61.5991 3.1365 61.5277 3.1717C61.4947 3.19283 61.4617 3.20691 61.4232 3.22099C61.3078 3.27732 61.3518 3.2562 61.5661 3.15762C61.4947 3.17874 61.4232 3.21395 61.3518 3.23507C61.3188 3.24915 61.2803 3.2562 61.2419 3.27028C61.121 3.30548 61.1704 3.2914 61.3848 3.23507C61.3463 3.24211 61.3078 3.24915 61.2693 3.2562C61.3738 3.23507 61.4837 3.23507 61.5881 3.26324C61.4947 3.23507 61.5112 3.24915 61.6376 3.2914C61.6046 3.27732 61.5771 3.2562 61.5496 3.22803L61.7035 3.36181C61.6376 3.29844 61.5881 3.23507 61.5441 3.14354L61.6266 3.32661C61.5771 3.20691 61.5551 3.08721 61.5551 2.95343V3.16466C61.5551 2.96047 61.6046 2.77036 61.6651 2.58729L61.5881 2.80557C61.6431 2.66474 61.709 2.52392 61.786 2.39718C61.8025 2.36902 61.8299 2.33381 61.8464 2.30565C61.742 2.52392 61.7475 2.43239 61.808 2.36902C61.8299 2.3479 61.8574 2.31973 61.8739 2.29157C61.9454 2.19299 61.6706 2.46759 61.7805 2.37606C61.8519 2.31973 61.9179 2.2634 61.9838 2.20707C62.0168 2.17891 62.0553 2.15779 62.0883 2.12962C62.1212 2.10146 62.2586 2.01697 62.0883 2.12962C61.9179 2.24228 62.0608 2.15075 62.0938 2.12962C62.1267 2.1085 62.1707 2.08738 62.2037 2.06625C62.3026 2.00992 62.6049 1.91135 62.2147 2.04513C62.2916 2.01697 62.3686 1.98176 62.451 1.96064C62.4895 1.94655 62.5279 1.93951 62.5719 1.92543C62.7368 1.87614 62.4565 1.96768 62.44 1.96064C62.4895 1.98176 62.6269 1.92543 62.6818 1.91135C62.7203 1.91135 62.7643 1.90431 62.8027 1.89727C62.9566 1.87614 62.7203 1.91839 62.6928 1.89727C62.7478 1.91839 62.8412 1.89727 62.8962 1.89727C62.9346 1.89727 63.0995 1.91839 62.9182 1.89727C62.7533 1.87614 62.8797 1.89727 62.9182 1.89727C62.9511 1.90431 62.9841 1.91839 63.0171 1.92543C63.116 1.94655 62.8577 1.84094 62.9456 1.89727C63.0116 1.93951 63.0775 1.97472 63.1435 2.02401L62.9896 1.88318C63.083 1.96768 63.16 2.06625 63.2204 2.18595L63.138 2.00288C63.182 2.11554 63.204 2.22116 63.2094 2.3479V2.13666C63.2094 2.27749 63.1875 2.40422 63.149 2.53801L63.2259 2.31973C63.204 2.37606 63.0885 2.57321 63.193 2.41127C63.3139 2.23524 63.4513 2.17187 63.6217 2.08034C63.858 1.97472 63.9294 1.93951 63.8305 1.96064C63.6601 2.00288 63.8085 1.98176 64.2812 1.88318C63.847 1.88318 63.2864 2.04513 62.9621 2.45351C62.8687 2.56617 62.7808 2.69995 62.7423 2.86189C62.6983 3.05905 62.8192 3.30548 62.9676 3.36885C63.5007 3.58713 64.0393 3.52376 64.5505 3.22803C64.8802 3.03792 65.221 2.74924 65.3914 2.32677C65.6112 1.77757 65.5837 1.15091 65.188 0.74253C64.7483 0.291901 64.1493 0.165162 63.5997 0.186285C62.8742 0.214449 62.1762 0.397517 61.5002 0.721407C60.9561 0.974886 60.357 1.36214 59.9393 1.88318C59.626 2.27044 59.3183 2.79853 59.2578 3.36885C59.1918 3.98143 59.4062 4.48838 59.8624 4.72778C60.6208 5.12208 61.5002 4.79819 62.2366 4.46726C63.3414 3.97439 64.3636 3.00272 64.9737 1.7142C65.0836 1.48184 65.0836 1.32694 64.9737 1.10163C64.5999 0.355271 63.7261 0.179244 63.0995 0.334148C62.7917 0.411599 62.4895 0.503133 62.2202 0.714366C62.0718 0.834064 61.808 1.08754 61.7805 1.34102C61.7145 1.98176 62.451 2.05921 62.7863 1.98176L62.7808 2.00288Z" fill="#E82C2A"/>
<path d="M62.1002 3.00986C62.5124 3.00986 63.139 2.84087 63.3643 2.34095C63.5896 1.84104 63.1774 1.61572 62.8422 1.61572C62.43 1.61572 61.8034 1.78471 61.5781 2.28463C61.3527 2.78454 61.765 3.00986 62.1002 3.00986Z" fill="#E82C2A"/>
<path d="M62.7877 2.71396C63.1999 2.71396 63.8265 2.54497 64.0518 2.04506C64.2771 1.54514 63.8649 1.31982 63.5297 1.31982C63.1175 1.31982 62.4909 1.48881 62.2656 1.98873C62.0402 2.48864 62.4525 2.71396 62.7877 2.71396Z" fill="#E82C2A"/>
<path d="M62.5553 3.00986C62.9675 3.00986 63.594 2.84087 63.8194 2.34095C64.0447 1.84104 63.6325 1.61572 63.2973 1.61572C62.885 1.61572 62.2585 1.78471 62.0332 2.28463C61.8078 2.78454 62.22 3.00986 62.5553 3.00986Z" fill="#E82C2A"/>
<path d="M72.6742 5.05786L81.4789 4.6354C84.4138 4.49458 87.3816 4.48753 90.311 4.19181C90.7122 4.14956 91.4157 3.8468 91.5696 3.30463C91.7235 2.76247 91.2728 2.55828 90.9101 2.55124C88.0301 2.52307 85.1282 2.81176 82.2483 2.95258L73.5811 3.368C73.0809 3.38913 72.328 3.56515 72.0477 4.18477C71.7893 4.76214 72.2675 5.07898 72.6797 5.05786H72.6742Z" fill="#E82C2A"/>
<path d="M97.1482 3.47418C97.1482 3.47418 97.1922 3.53755 97.2087 3.57275L97.1262 3.38968C97.1537 3.45305 97.1647 3.50938 97.1647 3.57979V3.36856C97.1647 3.43897 97.1482 3.50234 97.1262 3.56571L97.2087 3.34744C97.1812 3.41785 97.1482 3.47418 97.1097 3.5305L97.2581 3.31927C97.2581 3.31927 97.2087 3.3756 97.1812 3.40376C97.3626 3.24182 97.412 3.19957 97.3296 3.26294C97.2361 3.33335 97.3021 3.29111 97.5219 3.1362C97.4175 3.19253 97.4945 3.15733 97.7528 3.03763C98.0276 2.97426 98.11 2.95314 97.9946 2.97426C98.1485 2.94609 98.3024 2.95314 98.4508 2.98834C98.4343 2.98834 98.4178 2.9813 98.4013 2.97426L98.6156 3.06579C98.5827 3.05171 98.5552 3.03763 98.5277 3.00946L98.6816 3.15029C98.6211 3.09396 98.5717 3.03059 98.5387 2.94609L98.6211 3.12916C98.5772 3.02355 98.5607 2.91793 98.5552 2.79823V3.00946C98.5552 2.8616 98.5827 2.72078 98.6266 2.587L98.5442 2.80527C98.5772 2.71374 98.6211 2.63629 98.6706 2.55884L98.5222 2.77007C98.5222 2.77007 98.5607 2.72078 98.5827 2.69262C98.6651 2.587 98.4288 2.83344 98.4398 2.8264C98.5662 2.72078 98.1375 3.00242 98.2804 2.93201L98.0386 3.03763C98.1155 3.00946 98.088 3.01651 97.9506 3.05875C97.8242 3.08692 97.7857 3.09396 97.8462 3.08692C97.9396 3.07283 97.8682 3.07283 97.6428 3.101C97.6868 3.101 97.8132 3.11508 97.6209 3.08692C97.412 3.05875 97.6538 3.10804 97.7033 3.12916L97.489 3.03763C97.6099 3.09396 97.7198 3.16437 97.8187 3.2559L97.6648 3.11508C97.8077 3.24886 97.9341 3.41081 98.0276 3.60091L97.9451 3.41785C97.9891 3.51642 98.0166 3.60796 98.0166 3.72061V3.50938C98.0166 3.57979 98.0056 3.63612 97.9836 3.69949L98.066 3.48122C98.0495 3.52346 98.0331 3.55163 98.0111 3.58683L98.1595 3.3756C98.1595 3.3756 98.121 3.42489 98.1045 3.44601C98.2639 3.23478 98.3244 3.24886 98.2254 3.33335C98.1045 3.43193 98.5057 3.16437 98.3958 3.2207C98.2364 3.30519 98.6101 3.12916 98.5992 3.1362C98.5662 3.14324 98.5387 3.15733 98.5057 3.17141C98.3463 3.22774 98.863 3.09396 98.6926 3.12212C98.6321 3.12916 98.3958 3.15733 98.6486 3.1362C98.9014 3.11508 98.6706 3.1362 98.6101 3.12916C98.5497 3.12212 98.4892 3.12212 98.4288 3.11508C98.3189 3.101 98.7091 3.16437 98.5717 3.1362C98.5387 3.1362 98.5057 3.12212 98.4727 3.11508C98.4068 3.101 98.3463 3.07988 98.2859 3.05171L98.5002 3.14324C98.4233 3.10804 98.3463 3.06579 98.2749 3.00946L98.4288 3.15029C98.3518 3.07988 98.2914 3.00242 98.2419 2.90385L98.3244 3.08692C98.2749 2.97426 98.2474 2.8616 98.2419 2.73486V2.94609C98.2419 2.81936 98.2694 2.69966 98.3079 2.587L98.2254 2.80527C98.2639 2.71374 98.3079 2.63629 98.3573 2.55884L98.2089 2.77007C98.2419 2.72782 98.2749 2.69262 98.3079 2.65037C98.132 2.86864 98.1155 2.8264 98.2089 2.74894C97.9946 2.88272 97.9396 2.91793 98.0386 2.8616C98.11 2.8264 98.0825 2.84048 97.9506 2.89681C97.8187 2.95314 97.7912 2.96722 97.8627 2.93905C97.6209 2.99538 97.5604 3.00946 97.6813 2.98834C97.8682 2.96018 97.39 2.98834 97.5659 3.00242C97.5934 3.00242 97.6264 3.00242 97.6538 3.00242C97.467 2.97426 97.423 2.96722 97.5274 2.98834C97.6319 3.01651 97.7308 3.04467 97.8352 3.08692L97.6209 2.99538C97.8627 3.09396 98.1045 3.21366 98.3189 3.40376L98.165 3.26294C98.3079 3.39672 98.4398 3.54459 98.5332 3.74174L98.4508 3.55867C98.4947 3.66428 98.5222 3.7699 98.5277 3.8896V3.67837C98.5277 3.75582 98.5112 3.82623 98.4892 3.89664L98.5717 3.67837C98.5497 3.72765 98.5277 3.7699 98.5002 3.81215L98.6486 3.60091C98.6486 3.60091 98.6102 3.63612 98.6047 3.65724L98.764 3.50234L98.9729 3.36856C98.83 3.45305 99.3027 3.24182 99.1707 3.28407C99.0388 3.32631 99.517 3.19957 99.3906 3.22774C99.2092 3.26294 99.7039 3.22774 99.517 3.21366C99.495 3.21366 99.473 3.21366 99.451 3.21366C99.44 3.21366 99.4291 3.21366 99.4181 3.21366C99.3356 3.20661 99.3961 3.21366 99.5939 3.23478C99.3961 3.19253 99.1982 3.15029 99.0059 3.07283L99.2202 3.16437C99.0993 3.10804 98.9839 3.04467 98.874 2.95314L99.0278 3.09396C98.9454 3.01651 98.874 2.92497 98.819 2.81231L98.9014 2.99538C98.8575 2.88977 98.8355 2.77711 98.8355 2.65741V2.86864C98.8355 2.74894 98.8575 2.63629 98.9014 2.52363L98.819 2.7419C98.841 2.69262 98.863 2.64333 98.8904 2.60108L98.7421 2.81231C98.7421 2.81231 98.775 2.77711 98.786 2.75599C98.7366 2.8264 98.4947 3.00242 98.4068 3.05171C98.4508 3.03059 98.0386 3.20661 98.1705 3.15733C98.0441 3.20661 97.9176 3.22774 97.7912 3.23478C97.6648 3.23478 97.6374 3.23478 97.7033 3.24886C97.9506 3.26998 98.2089 3.18549 98.4398 3.08692C98.6486 2.99538 98.885 2.86864 99.0443 2.66445C99.1378 2.54475 99.2312 2.41097 99.2697 2.24199C99.3191 2.02371 99.1872 1.7984 99.0388 1.72095C98.5497 1.46747 97.9836 1.559 97.5054 1.81952C97.1922 1.98851 96.8844 2.23495 96.692 2.59404C96.5162 2.92497 96.4227 3.42489 96.5711 3.79807C96.791 4.34023 97.2087 4.57258 97.6428 4.72749C98.077 4.88239 98.5387 4.93168 98.9894 4.89647C99.2972 4.86831 99.6049 4.75565 99.8907 4.60779C100.209 4.4388 100.561 4.15716 100.737 3.75582C100.847 3.50938 100.902 3.24182 100.842 2.96018C100.798 2.7419 100.677 2.52363 100.556 2.35464C100.297 2.00963 99.9567 1.79136 99.6104 1.62941C99.3851 1.5238 99.1543 1.42522 98.9179 1.37593C98.4782 1.29144 98.0441 1.31961 97.6099 1.44634C97.0493 1.61533 96.4447 2.01667 96.115 2.64333C96.016 2.83344 95.9336 3.06579 95.9171 3.29111C95.9006 3.615 95.9501 3.84735 96.0985 4.11491C96.3128 4.50217 96.736 4.68524 97.0822 4.76269C97.4999 4.85423 97.9561 4.88239 98.3793 4.7979C98.9509 4.6782 99.5829 4.45289 100.012 3.91776C100.166 3.72765 100.325 3.48122 100.347 3.19253C100.374 2.85456 100.286 2.60812 100.127 2.34056C99.4071 1.14358 97.8792 1.22807 96.9723 1.99555C96.6096 2.29832 96.2469 2.78415 96.2249 3.3756C96.2139 3.69949 96.2468 3.89664 96.3843 4.1642C96.5217 4.43176 96.769 4.5585 96.9943 4.62891C97.456 4.76269 97.9726 4.62891 98.4013 4.4036C98.7366 4.22757 99.0169 3.97409 99.2532 3.62204C99.4895 3.26998 99.5775 2.7067 99.2917 2.34056C99.1323 2.14341 98.874 2.08708 98.6651 2.08004C98.3683 2.06596 98.0221 2.15749 97.7528 2.3124C97.5274 2.43914 97.2581 2.61516 97.1317 2.89681C97.0438 3.09396 96.9888 3.32631 97.1317 3.50938L97.1482 3.47418Z" fill="#E82C2A"/>
<path d="M107.294 2.81888C113.543 2.9949 119.781 3.42441 126.008 4.04403C126.486 4.09331 127.261 3.81167 127.514 3.24838C127.789 2.64285 127.278 2.43162 126.893 2.38937C120.672 1.70639 114.434 1.31209 108.196 1.12902C107.701 1.11494 106.931 1.34729 106.662 1.94578C106.393 2.54428 106.893 2.81184 107.294 2.81888Z" fill="#E82C2A"/>
<path d="M133.63 2.17812C133.592 2.3119 133.548 2.43864 133.499 2.56538L133.581 2.34711C133.499 2.55834 133.411 2.76957 133.29 2.9456L133.438 2.73437C133.389 2.80478 133.334 2.86815 133.279 2.92448L133.488 2.72733C133.488 2.72733 133.438 2.76957 133.411 2.7907C133.317 2.86111 133.378 2.81886 133.587 2.67804C133.515 2.71324 133.548 2.7062 133.68 2.64283C133.817 2.57946 133.955 2.53722 134.153 2.52313C134.389 2.50905 134.246 2.52313 134.186 2.50905L134.444 2.54426C134.394 2.53722 134.35 2.52313 134.306 2.50905L134.515 2.59355C134.444 2.56538 134.378 2.52313 134.317 2.46681L134.471 2.60059C134.4 2.53018 134.339 2.45272 134.296 2.35415L134.378 2.53722C134.345 2.45976 134.328 2.38231 134.323 2.29782V2.50905C134.323 2.4316 134.339 2.36119 134.361 2.29078L134.285 2.50905C134.301 2.46681 134.323 2.4316 134.345 2.3964L134.197 2.60763C134.23 2.56538 134.263 2.52313 134.301 2.48793L134.092 2.68508C134.131 2.64987 134.175 2.62171 134.213 2.5865C134.224 2.57946 133.922 2.76253 134.048 2.69212C134.07 2.67804 134.092 2.66396 134.114 2.65692C134.136 2.64987 134.158 2.63579 134.18 2.62171C134.317 2.5513 133.96 2.71324 133.982 2.7062C134.037 2.69212 134.087 2.671 134.142 2.64987C134.263 2.60763 133.812 2.72733 133.938 2.69916C133.96 2.69916 133.988 2.69212 134.01 2.68508C134.065 2.67804 134.257 2.65692 134.026 2.67804C133.795 2.69916 133.988 2.67804 134.043 2.67804C134.098 2.67804 134.153 2.67804 134.208 2.69212L133.949 2.65692C134.092 2.67804 134.235 2.71324 134.372 2.76957L134.158 2.68508C134.296 2.74141 134.427 2.81886 134.554 2.91039L134.317 2.38231C134.274 2.53722 134.23 2.69212 134.175 2.83998L134.257 2.62171C134.175 2.83998 134.081 3.03713 133.955 3.2202L134.103 3.00897C134.032 3.10754 133.96 3.19908 133.878 3.27653L134.087 3.07938C134.059 3.10754 134.032 3.12867 133.999 3.14979C133.889 3.24132 134.202 3.02305 134.18 3.03713C134.153 3.05122 134.125 3.0653 134.098 3.07938C134.081 3.08642 134.466 2.92448 134.301 2.98785C134.202 3.02305 134.087 2.98785 134.51 2.93856C134.488 2.93856 134.46 2.9456 134.438 2.95264C134.317 2.97376 134.774 2.95264 134.625 2.93856C134.598 2.93856 134.565 2.93856 134.537 2.93856L134.796 2.97376C134.73 2.96672 134.664 2.9456 134.598 2.92448L134.812 3.01601C134.741 2.9808 134.675 2.9456 134.609 2.88927L134.763 3.03009C134.686 2.95968 134.62 2.87519 134.57 2.76957L134.653 2.95264C134.598 2.8259 134.57 2.68508 134.57 2.53722V2.74845C134.57 2.60059 134.603 2.45977 134.653 2.32598L134.57 2.54426C134.609 2.45272 134.653 2.36823 134.702 2.29078L134.554 2.50201C134.587 2.45977 134.614 2.42456 134.653 2.38935L134.444 2.5865C134.444 2.5865 134.488 2.5513 134.51 2.53018C134.285 2.671 134.219 2.71324 134.317 2.65692C134.383 2.62171 134.35 2.63579 134.213 2.69916C134.076 2.75549 134.043 2.76957 134.109 2.74845C133.839 2.80478 133.757 2.8259 133.861 2.81182C133.955 2.79774 133.878 2.80478 133.636 2.8259C133.652 2.8259 133.674 2.8259 133.691 2.8259L133.433 2.7907C133.477 2.79774 133.521 2.81182 133.565 2.8259L133.35 2.73437C133.411 2.76253 133.466 2.79774 133.515 2.84702L133.361 2.7062C133.46 2.79774 133.537 2.91039 133.598 3.04417L133.515 2.86111C133.576 3.00897 133.614 3.16387 133.614 3.32582V3.11459C133.614 3.23428 133.592 3.36102 133.576 3.47368C133.499 4.04401 134.109 4.12146 134.411 4.10034C134.911 4.06513 135.433 3.82573 135.757 3.31878C135.95 3.02305 135.994 2.59355 135.9 2.23445C135.807 1.87536 135.604 1.58667 135.345 1.38248C135.213 1.27686 135.059 1.21349 134.911 1.17829C134.548 1.08675 134.186 1.13604 133.828 1.24166C133.323 1.38952 132.861 1.73453 132.531 2.24149C132.202 2.74845 132.125 3.59338 132.531 4.08625C132.762 4.3679 133.081 4.53688 133.389 4.58617C133.96 4.6777 134.521 4.57209 135.054 4.29749C135.51 4.05809 135.911 3.66379 136.208 3.15683C136.406 2.81886 136.538 2.41752 136.642 2.02322C136.703 1.78382 136.543 1.59371 136.406 1.49514C135.928 1.14308 135.334 0.995221 134.785 1.02338C134.4 1.04451 134.021 1.10084 133.647 1.25574C133.207 1.43881 132.768 1.66412 132.416 2.05842C132.163 2.34007 131.976 2.72733 132.031 3.17091C132.059 3.40327 132.196 3.62858 132.344 3.77645C133.07 4.48055 134.153 4.25524 134.878 3.67083C135.169 3.43847 135.428 3.12867 135.609 2.76253C135.752 2.46681 135.862 2.14292 135.961 1.81903C136.032 1.59371 135.856 1.37544 135.724 1.2839C135.51 1.14308 135.186 1.13604 134.961 1.17829C134.46 1.26982 133.845 1.53738 133.641 2.1922L133.63 2.17812Z" fill="#E82C2A"/>
<path d="M143.787 3.62262H151.921C154.631 3.62262 157.379 3.7916 160.083 3.58037C160.479 3.55221 161.182 3.23536 161.331 2.70024C161.479 2.16511 161.028 1.98205 160.677 1.95388C158.038 1.73561 155.334 1.93276 152.691 1.93276H144.694C144.199 1.93276 143.43 2.13695 143.161 2.74248C142.891 3.34801 143.386 3.61558 143.793 3.61558L143.787 3.62262Z" fill="#E82C2A"/>
<path d="M168.525 2.04572C168.487 2.08092 168.443 2.10909 168.399 2.14429L168.657 1.97531C168.596 2.01755 168.53 2.04572 168.465 2.08092L168.767 1.94714C168.712 1.96827 168.651 1.98939 168.596 2.00347L168.91 1.92602C168.849 1.9401 168.794 1.94714 168.734 1.95418L169.025 1.93306C168.954 1.93306 168.888 1.93306 168.816 1.93306L169.075 1.96827H169.047L169.492 2.5738C169.52 2.47522 169.547 2.36961 169.58 2.27807L169.503 2.49635C169.558 2.34848 169.624 2.20766 169.712 2.08092L169.564 2.29216C169.613 2.22175 169.668 2.15838 169.723 2.10909L169.514 2.30624C169.547 2.27807 169.58 2.24991 169.613 2.22879L169.355 2.39777C169.388 2.37665 169.415 2.36257 169.448 2.34848L169.146 2.48227C169.146 2.48227 169.196 2.46114 169.223 2.4541L168.91 2.53155C168.943 2.52451 168.976 2.51747 169.009 2.51747L168.717 2.53859C168.756 2.53859 168.794 2.53859 168.833 2.53859L168.574 2.50339C168.635 2.51043 168.69 2.52451 168.745 2.55268L168.536 2.46818C168.635 2.51043 168.723 2.56676 168.805 2.64421L168.651 2.51043C168.778 2.63013 168.888 2.77095 168.97 2.94698L168.888 2.76391C168.959 2.92585 169.003 3.10188 169.009 3.29199V3.08076C169.009 3.2075 168.987 3.33424 168.948 3.45393L169.025 3.23566C168.992 3.32719 168.948 3.41169 168.893 3.4821L169.042 3.27087C169.003 3.32719 168.959 3.36944 168.915 3.41169L169.124 3.21454C169.086 3.24974 169.042 3.28495 168.998 3.31311L169.256 3.14413C169.217 3.16525 169.179 3.18637 169.135 3.2075L169.437 3.07372C169.399 3.0878 169.355 3.10188 169.311 3.11596L169.624 3.03851C169.58 3.04555 169.542 3.05259 169.498 3.05963L169.789 3.03851C169.734 3.03851 169.674 3.03851 169.619 3.03851L169.877 3.07372C169.822 3.06667 169.767 3.05259 169.712 3.02443L169.926 3.11596C169.85 3.08076 169.784 3.03851 169.718 2.98218L169.872 3.123C169.784 3.03851 169.712 2.93994 169.657 2.82024L169.74 3.0033C169.663 2.82728 169.624 2.63013 169.624 2.42594V2.63717C169.624 2.46114 169.652 2.29216 169.712 2.13021L169.63 2.34848C169.668 2.24991 169.712 2.15838 169.767 2.07388L169.619 2.28512C169.652 2.23583 169.69 2.19358 169.729 2.15838L169.52 2.35553C169.547 2.32736 169.58 2.30624 169.613 2.28512L169.349 2.4541C169.382 2.43298 169.415 2.4189 169.448 2.39777L169.146 2.53155C169.179 2.51747 169.212 2.50339 169.25 2.49635L168.937 2.5738C168.97 2.56676 169.009 2.55972 169.042 2.55972L168.75 2.58084C168.8 2.58084 168.849 2.58084 168.899 2.58084L168.64 2.54563C168.706 2.55268 168.767 2.5738 168.827 2.60196L168.613 2.51043C168.701 2.55268 168.783 2.60196 168.86 2.67237L168.706 2.53155C168.805 2.62309 168.888 2.73574 168.954 2.86952L168.871 2.68646C168.91 2.77799 168.937 2.86952 168.954 2.9681L169.185 2.32736C169.075 2.46818 168.954 2.59492 168.827 2.71462L169.036 2.51747C168.888 2.65829 168.728 2.77799 168.563 2.88361L168.827 2.71462C168.679 2.80615 168.531 2.89065 168.371 2.96106L168.668 2.83432C168.531 2.89065 168.399 2.95402 168.261 3.01035L168.552 2.88361C168.509 2.90473 168.459 2.92585 168.415 2.93994C168.168 3.03147 167.865 3.17933 167.679 3.41873C167.563 3.55955 167.459 3.71445 167.459 3.93273C167.448 4.00314 167.459 4.06651 167.497 4.12284C167.53 4.22845 167.596 4.29886 167.684 4.34111C167.909 4.46785 168.173 4.48193 168.415 4.43969C169.124 4.3059 169.839 3.98906 170.432 3.45393C170.581 3.32015 170.734 3.17933 170.872 3.02443C171.07 2.80615 171.333 2.53859 171.273 2.16542C171.257 2.07388 171.229 1.98235 171.191 1.89786C171.125 1.74999 171.059 1.60213 170.96 1.48243C170.416 0.827612 169.602 0.813529 168.915 1.01772C168.228 1.22191 167.53 1.77816 167.338 2.67942C167.283 2.93289 167.283 3.23566 167.327 3.48914C167.343 3.58771 167.371 3.67925 167.409 3.77078C167.47 3.91865 167.536 4.06651 167.629 4.17917C168.157 4.84103 169.009 4.79174 169.668 4.58755C170.328 4.38336 171.07 3.85528 171.284 2.97514C171.405 2.47522 171.24 1.92602 170.976 1.55284C170.542 0.954351 169.828 0.764242 169.218 0.905063C168.679 1.02476 168.118 1.2712 167.728 1.79224C167.602 1.96123 167.481 2.13725 167.393 2.34848C167.316 2.54563 167.239 2.74279 167.189 2.95402C167.107 3.29199 167.415 3.53139 167.635 3.56659C167.8 3.58771 167.959 3.62292 168.124 3.61588C168.415 3.6018 168.657 3.56659 168.943 3.4821C169.294 3.38352 169.652 3.19341 169.954 2.94698C170.119 2.8132 170.35 2.58788 170.394 2.32032C170.432 2.08796 170.322 1.88377 170.157 1.79224C169.926 1.65846 169.646 1.64438 169.393 1.68662C169.091 1.74295 168.778 1.84857 168.52 2.06684L168.525 2.04572Z" fill="#E82C2A"/>
</g>
<defs>
<clipPath id="clip0_1398_5217">
<rect width="172" height="4" fill="white" transform="translate(0 0.63623)"/>
</clipPath>
</defs>
</svg>
