<svg width="36" height="35" viewBox="0 0 36 35" fill="none" xmlns="http://www.w3.org/2000/svg">
<path fill-rule="evenodd" clip-rule="evenodd" d="M16.6137 13.0083C13.2549 10.2473 10.5333 6.95934 8.4881 3.1286C8.07907 2.36559 7.12732 2.07455 6.35645 2.48358C5.59344 2.89261 5.30235 3.84441 5.71138 4.61528C7.96106 8.80786 10.9345 12.4105 14.6158 15.4389C15.2844 15.9895 16.2833 15.8951 16.8339 15.2265C17.3845 14.55 17.2823 13.5589 16.6137 13.0083Z" fill="#E82C2A"/>
<path fill-rule="evenodd" clip-rule="evenodd" d="M14.8224 2.2555C14.9955 5.43337 15.1529 8.61123 15.3495 11.7891C15.4046 12.6544 16.1518 13.3151 17.0171 13.26C17.8824 13.205 18.5431 12.4577 18.488 11.5924C18.2914 8.42245 18.134 5.25246 17.961 2.0746C17.9138 1.2117 17.1665 0.547014 16.3013 0.595783C15.436 0.644552 14.7674 1.38788 14.8224 2.2555Z" fill="#E82C2A"/>
<path fill-rule="evenodd" clip-rule="evenodd" d="M26.5003 2.90064C24.4866 5.93691 22.2056 8.73718 19.9087 11.5689C19.3581 12.2454 19.4603 13.2366 20.1367 13.7793C20.8132 14.33 21.8044 14.2277 22.3471 13.5512C24.7069 10.6486 27.051 7.7618 29.1276 4.63899C29.6074 3.91532 29.4029 2.93997 28.6792 2.46014C27.9634 1.98031 26.9801 2.17696 26.5003 2.90064Z" fill="#E82C2A"/>
<path fill-rule="evenodd" clip-rule="evenodd" d="M34.3007 14.1882C28.8417 14.4321 23.0445 14.44 17.5855 14.0939C16.7202 14.0467 15.9729 14.6995 15.9179 15.5727C15.8628 16.4379 16.5236 17.1852 17.3888 17.2403C22.958 17.5864 28.8732 17.5785 34.4424 17.3346C35.3076 17.2953 35.984 16.5559 35.9447 15.6907C35.9054 14.8254 35.166 14.1489 34.3007 14.1882Z" fill="#E82C2A"/>
<path fill-rule="evenodd" clip-rule="evenodd" d="M14.6115 15.1872C17.9781 19.309 21.4628 23.3522 24.5856 27.6627C25.0969 28.3628 26.0802 28.5201 26.7881 28.0088C27.4882 27.4975 27.6455 26.5142 27.1342 25.8141C23.9721 21.4564 20.4481 17.3661 17.0421 13.1971C16.4915 12.5285 15.5004 12.4262 14.8318 12.9769C14.1553 13.5275 14.0609 14.5186 14.6115 15.1872Z" fill="#E82C2A"/>
<path fill-rule="evenodd" clip-rule="evenodd" d="M15.6311 16.3831C16.5121 20.6779 16.7559 24.784 16.8189 29.1339C16.8267 29.9991 17.5425 30.6913 18.4078 30.6834C19.2809 30.6677 19.9731 29.9597 19.9574 29.0866C19.8945 24.5322 19.6349 20.2453 18.7146 15.7459C18.5337 14.8964 17.7077 14.3457 16.8503 14.5266C16.0008 14.6997 15.4502 15.5335 15.6311 16.3831Z" fill="#E82C2A"/>
<path fill-rule="evenodd" clip-rule="evenodd" d="M15.7731 16.0372C13.2245 21.1344 11.9109 26.7979 9.18138 31.7849C8.76448 32.5401 9.0476 33.4997 9.81061 33.9166C10.5736 34.3335 11.5255 34.0503 11.9424 33.2952C14.6876 28.2766 16.0169 22.5817 18.5891 17.4452C18.9745 16.6664 18.6599 15.7225 17.889 15.3292C17.1103 14.9438 16.1664 15.2584 15.7731 16.0372Z" fill="#E82C2A"/>
<path fill-rule="evenodd" clip-rule="evenodd" d="M17.1757 14.8804C12.1021 15.7771 7.03642 16.1861 1.93138 16.7918C1.06612 16.8941 0.452575 17.6728 0.554833 18.5381C0.657091 19.4033 1.4359 20.0169 2.30116 19.9146C7.46126 19.3089 12.5899 18.8842 17.7264 17.9796C18.5759 17.8223 19.1501 17.0042 19.0007 16.1547C18.8434 15.2973 18.0331 14.723 17.1757 14.8804Z" fill="#E82C2A"/>
<path fill-rule="evenodd" clip-rule="evenodd" d="M20.7062 12.4896C19.66 12.4424 18.6689 12.3716 17.6463 12.2221C16.7811 12.0963 15.9866 12.6941 15.8607 13.5515C15.7349 14.4089 16.3327 15.2113 17.1901 15.3371C18.3228 15.5023 19.4162 15.5809 20.5646 15.6281C21.4299 15.6675 22.1692 14.9988 22.2007 14.1257C22.24 13.2604 21.5715 12.5289 20.7062 12.4896Z" fill="#E82C2A"/>
</svg>
