<svg width="29" height="30" viewBox="0 0 29 30" fill="none" xmlns="http://www.w3.org/2000/svg">
<path fill-rule="evenodd" clip-rule="evenodd" d="M13.8417 3.1786C17.5602 4.09313 21.141 4.03324 24.9128 4.14284C25.6494 4.16414 26.2617 3.58551 26.2839 2.85113C26.3061 2.11631 25.7248 1.50306 24.9882 1.48132C21.4117 1.37749 18.0083 1.46136 14.4762 0.593425C13.7618 0.417707 13.0386 0.854791 12.8655 1.56831C12.688 2.28139 13.1273 3.00332 13.8417 3.1786Z" fill="#1F2937"/>
<path fill-rule="evenodd" clip-rule="evenodd" d="M6.63548 10.948C12.3064 17.1522 19.6013 22.9979 26.9672 27.0838C27.6106 27.4401 28.4227 27.208 28.7777 26.5655C29.1327 25.923 28.9019 25.1119 28.2585 24.7555C21.1366 20.8046 14.0813 15.151 8.60117 9.15174C8.10419 8.6095 7.26111 8.57178 6.71976 9.06743C6.17841 9.56308 6.1385 10.4057 6.63548 10.948Z" fill="#1F2937"/>
<path fill-rule="evenodd" clip-rule="evenodd" d="M0.440915 12.5193C-0.495357 18.1938 1.10206 24.0426 3.36065 29.2023C3.65795 29.8754 4.44333 30.1825 5.11337 29.8883C5.78784 29.5937 6.09403 28.8078 5.80117 28.1347C3.74226 23.4356 2.21581 18.121 3.06777 12.9529C3.18758 12.2278 2.69505 11.5422 1.97177 11.4229C1.24848 11.3031 0.560723 11.7947 0.440915 12.5193Z" fill="#1F2937"/>
</svg>
