<svg width="31" height="30" viewBox="0 0 31 30" fill="none" xmlns="http://www.w3.org/2000/svg">
<path fill-rule="evenodd" clip-rule="evenodd" d="M27.7021 17.6849C25.8603 21.0327 24.9932 24.4996 23.9135 28.1067C23.7027 28.8112 24.1023 29.5509 24.8044 29.7619C25.5069 29.9731 26.2481 29.5712 26.4593 28.8668C27.4831 25.4464 28.2812 22.1444 30.03 18.9641C30.3839 18.3209 30.1494 17.5109 29.5063 17.1598C28.8649 16.8046 28.0556 17.0415 27.7021 17.6849Z" fill="#1F2937"/>
<path fill-rule="evenodd" clip-rule="evenodd" d="M22.0747 8.73257C14.6301 12.5961 7.11171 18.1176 1.27116 24.1621C0.761557 24.6902 0.775526 25.5329 1.30314 26.041C1.83076 26.5491 2.67217 26.5361 3.18178 26.008C8.82928 20.1639 16.1006 14.8237 23.2983 11.0911C23.9493 10.7521 24.2034 9.94927 23.8655 9.29948C23.5276 8.64968 22.7257 8.39359 22.0747 8.73257Z" fill="#1F2937"/>
<path fill-rule="evenodd" clip-rule="evenodd" d="M22.16 2.35608C16.9324 -0.0118512 10.8825 0.0172843 5.32596 0.861672C4.60037 0.974377 4.10156 1.65207 4.21208 2.37386C4.32187 3.10005 5.00025 3.59814 5.72469 3.48971C10.7857 2.71883 16.3024 2.62011 21.0637 4.77602C21.7316 5.07876 22.5196 4.78109 22.8214 4.11478C23.1237 3.44858 22.8274 2.6587 22.16 2.35608Z" fill="#1F2937"/>
</svg>
