<svg width="93" height="95" viewBox="0 0 93 95" fill="none" xmlns="http://www.w3.org/2000/svg">
<g filter="url(#filter0_d_364_1390)">
<ellipse cx="45.649" cy="45" rx="44.6939" ry="45" fill="#E82C2A"/>
<path d="M89.6229 45C89.6229 69.4598 69.9305 89.28 45.649 89.28C21.3676 89.28 1.67517 69.4598 1.67517 45C1.67517 20.5402 21.3676 0.72 45.649 0.72C69.9305 0.72 89.6229 20.5402 89.6229 45Z" stroke="#374151" stroke-width="1.44"/>
</g>
<path d="M32.107 41.2481V47.9785C32.107 55.4925 32.107 59.2495 34.5577 60.7199C37.0085 62.1903 40.3235 60.4224 46.9534 56.8864L53.2632 53.5212C60.6121 49.6017 64.2866 47.642 64.2866 44.6133C64.2866 41.5847 60.6121 39.6249 53.2632 35.7055L46.9534 32.3403C40.3235 28.8043 37.0085 27.0363 34.5577 28.5067C32.107 29.9772 32.107 33.7342 32.107 41.2481Z" fill="white"/>
<defs>
<filter id="filter0_d_364_1390" x="0.95517" y="0" width="91.5478" height="94.32" filterUnits="userSpaceOnUse" color-interpolation-filters="sRGB">
<feFlood flood-opacity="0" result="BackgroundImageFix"/>
<feColorMatrix in="SourceAlpha" type="matrix" values="0 0 0 0 0 0 0 0 0 0 0 0 0 0 0 0 0 0 127 0" result="hardAlpha"/>
<feOffset dx="2.16" dy="4.32"/>
<feComposite in2="hardAlpha" operator="out"/>
<feColorMatrix type="matrix" values="0 0 0 0 0.0705882 0 0 0 0 0.0784314 0 0 0 0 0.113725 0 0 0 1 0"/>
<feBlend mode="normal" in2="BackgroundImageFix" result="effect1_dropShadow_364_1390"/>
<feBlend mode="normal" in="SourceGraphic" in2="effect1_dropShadow_364_1390" result="shape"/>
</filter>
</defs>
</svg>
