<svg width="174" height="16" viewBox="0 0 174 16" fill="none" xmlns="http://www.w3.org/2000/svg">
<g clip-path="url(#clip0_1398_5813)">
<path d="M1.25339 6.67684L61.5748 7.3852C81.5891 7.62479 101.603 7.85397 121.618 8.09356C132.921 8.22898 144.225 8.53107 155.528 8.46857C156.418 8.46857 157.778 8.18731 158.271 7.36436C158.764 6.54142 157.853 6.19766 157.146 6.17682C147.107 5.88514 137.046 5.92681 126.996 5.81223C116.946 5.69764 106.886 5.59347 96.8248 5.46846L36.7605 4.77052L2.86054 4.39551C1.98197 4.39551 0.621252 4.67677 0.139109 5.4893C-0.343034 6.30183 0.546252 6.66642 1.25339 6.66642V6.67684Z" fill="#57D081"/>
<path d="M152.796 3.30236C158.882 3.85447 164.775 5.68786 170.153 8.50047L171.011 6.63582C164.818 9.30258 158.464 11.2193 151.95 12.9798C151.35 13.1465 150.011 13.6569 150.203 14.4798C150.396 15.3028 151.95 15.0424 152.486 14.9382C159.418 13.5527 166.243 11.1151 172.703 8.34421C173.346 8.06295 174.718 7.09417 173.561 6.47956C167.646 3.37528 161.153 1.5523 154.468 0.927277C153.557 0.843941 152.132 1.27104 151.628 2.06273C151.082 2.92735 152.1 3.22944 152.796 3.29195V3.30236Z" fill="#57D081"/>
</g>
<defs>
<clipPath id="clip0_1398_5813">
<rect width="174" height="14.1463" fill="white" transform="translate(0 0.926758)"/>
</clipPath>
</defs>
</svg>
