<svg width="197" height="14" viewBox="0 0 197 14" fill="none" xmlns="http://www.w3.org/2000/svg">
<g clip-path="url(#clip0_1398_3630)">
<path d="M42.875 2.96072C61.5879 2.56154 80.311 2.30493 99.0341 2.19088C117.757 2.07683 136.307 2.11485 154.939 2.29543C165.523 2.39997 176.117 2.54253 186.701 2.73262L188.137 0.784269C163.974 1.17394 139.822 1.65865 115.669 2.2384C91.5163 2.81815 67.3638 3.49295 43.2112 4.27229C29.6527 4.70948 16.1044 5.16568 2.54597 5.65989C1.75141 5.6884 0.559573 5.87849 0.11136 6.6008C-0.306294 7.27559 0.467893 7.62725 1.10965 7.60824C26.2809 7.00948 51.4725 6.95245 76.654 7.44667C101.835 7.94088 126.997 8.99584 152.127 10.5925C166.246 11.4859 180.354 12.5599 194.442 13.8049C195.206 13.8715 196.47 13.5198 196.877 12.864C197.325 12.1512 196.49 11.9041 195.879 11.8566C170.809 9.64212 145.679 7.9694 120.528 6.84791C95.3771 5.72642 70.1855 5.16568 45.004 5.15617C30.8547 5.15617 16.7054 5.31774 2.55616 5.65989L1.11984 7.60824C25.2622 6.72435 49.4148 5.94501 73.5674 5.25121C97.72 4.56692 121.873 3.96815 146.025 3.47394C159.584 3.19832 173.152 2.94171 186.711 2.72311C187.505 2.71361 188.707 2.49501 189.145 1.7822C189.583 1.06939 188.779 0.784269 188.147 0.774765C169.414 0.451625 150.701 0.252038 131.978 0.204517C113.255 0.156996 94.7048 0.242534 76.0734 0.480137C65.4894 0.613195 54.8953 0.793774 44.3113 1.02187C43.5168 1.04088 42.3147 1.24997 41.8767 1.96278C41.4591 2.63758 42.2332 2.98923 42.875 2.97022V2.96072Z" fill="#36BBFC"/>
</g>
<defs>
<clipPath id="clip0_1398_3630">
<rect width="197" height="13.6289" fill="white" transform="translate(0 0.185547)"/>
</clipPath>
</defs>
</svg>
