<svg width="197" height="6" viewBox="0 0 197 6" fill="none" xmlns="http://www.w3.org/2000/svg">
<g clip-path="url(#clip0_1398_5594)">
<path d="M0.703624 3.50682C7.43077 3.23926 14.1744 3.10548 20.9016 2.6971C21.4017 2.66894 22.1437 2.50699 22.424 1.88738C22.6878 1.30297 22.1986 1.00724 21.7974 1.01428C15.0703 1.14806 8.33762 1.5494 1.61047 1.82401C1.11033 1.84513 0.351878 2.02116 0.0770756 2.64077C-0.186734 3.21814 0.302413 3.53499 0.70912 3.51387L0.703624 3.50682Z" fill="#E82C2A"/>
<path d="M26.7708 3.11889C26.7708 3.11889 26.8203 3.11889 26.8423 3.12593L26.584 3.09072C26.6554 3.1048 26.7214 3.11889 26.7928 3.14705L26.5785 3.05552C26.6829 3.09776 26.7763 3.16113 26.8643 3.23858L26.7104 3.09776C26.8478 3.2245 26.9577 3.37941 27.0456 3.56247L26.9632 3.37941C26.9907 3.44278 27.0127 3.49206 27.0127 3.56952V3.35828C27.0127 3.44278 27.0017 3.52023 26.9742 3.59768L27.0566 3.37941C27.0346 3.44278 27.0017 3.4991 26.9632 3.55543L27.1116 3.3442C27.0841 3.37941 27.0511 3.41461 27.0237 3.44982L27.2325 3.25267C27.183 3.30195 27.0401 3.39349 27.2545 3.25267C27.4523 3.12593 27.3754 3.17522 27.3259 3.20338C27.227 3.25267 27.6942 3.05552 27.5458 3.1048C27.4304 3.14705 27.9305 3.02031 27.7326 3.05552C27.5952 3.08368 28.0514 3.05552 27.936 3.04143C27.914 3.04143 27.892 3.04143 27.87 3.04143L28.1284 3.07664C28.0789 3.0696 28.0294 3.05552 27.98 3.03439L28.1943 3.11889C28.1448 3.09776 28.1009 3.0696 28.0569 3.03439L28.2108 3.16817C28.1284 3.09776 28.0679 2.99919 28.0184 2.89357L28.1009 3.07664C28.0294 2.9147 28.0019 2.73867 27.9965 2.54856V2.75979C27.9965 2.5556 28.0404 2.35845 28.1064 2.16834L28.0294 2.38661C28.0789 2.25987 28.1339 2.14722 28.2108 2.04864L28.0624 2.25987C28.1119 2.1965 28.1613 2.14018 28.2163 2.08385L28.0074 2.281C28.0514 2.23875 28.1009 2.20355 28.1503 2.1613C28.2493 2.08385 27.881 2.32324 27.991 2.26692C28.0129 2.25283 28.0349 2.23875 28.0569 2.23171C28.2273 2.14018 27.881 2.30916 27.881 2.30916C27.903 2.30212 27.9305 2.28804 27.9525 2.281C27.9745 2.27396 28.002 2.26692 28.0239 2.25987C28.0239 2.25987 27.6612 2.34437 27.8426 2.30916C27.892 2.30212 27.9415 2.28804 27.9965 2.28804C28.0844 2.281 28.2163 2.29508 27.8371 2.29508C27.8646 2.29508 27.8865 2.29508 27.914 2.29508C28.0294 2.29508 28.1448 2.30212 28.2603 2.3162L28.002 2.281C28.1119 2.29508 28.2163 2.32324 28.3207 2.36549L28.1064 2.281C28.1888 2.3162 28.2658 2.35845 28.3372 2.42182L28.1833 2.28804C28.2493 2.35141 28.3097 2.42182 28.3537 2.50631L28.2713 2.32324C28.3152 2.42182 28.3372 2.52744 28.3427 2.64713V2.4359C28.3427 2.54152 28.3207 2.63305 28.2877 2.73163L28.3702 2.51335C28.3262 2.62601 28.2658 2.72459 28.1998 2.82316L28.3482 2.61193C28.2713 2.71754 28.1833 2.81612 28.0899 2.90061L28.2987 2.70346C28.2603 2.73867 28.2163 2.77387 28.1778 2.80908C28.1613 2.82316 28.1448 2.8302 28.1284 2.84428C28.002 2.93582 28.4087 2.66826 28.2987 2.73163C28.2603 2.75275 28.2163 2.78091 28.1778 2.80204C28.1558 2.81612 28.1339 2.82316 28.1064 2.83724C28.002 2.88653 28.4691 2.68938 28.3097 2.74571C28.2658 2.75979 28.2218 2.77387 28.1833 2.78796C28.0789 2.82316 28.557 2.70346 28.3977 2.73163C28.3812 2.73163 28.3592 2.73867 28.3427 2.74571C28.3207 2.74571 28.2932 2.74571 28.2713 2.75275C28.1723 2.77387 28.612 2.74571 28.4691 2.73867C28.4251 2.73867 28.3812 2.73867 28.3372 2.73163L28.5955 2.76683C28.5351 2.75979 28.4801 2.74571 28.4251 2.71754L28.6395 2.80908C28.5845 2.78796 28.5406 2.75275 28.4911 2.71754L28.645 2.85837C28.579 2.80204 28.5296 2.73163 28.4856 2.64009L28.568 2.82316C28.5186 2.7105 28.4966 2.59785 28.4911 2.47111V2.68234C28.4911 2.58376 28.5131 2.49223 28.5406 2.4007L28.4581 2.61897C28.4856 2.54152 28.5241 2.47111 28.568 2.4007L28.4196 2.61193C28.4581 2.5556 28.4966 2.50631 28.5461 2.46407L28.3372 2.66122C28.4251 2.58376 28.5186 2.56264 28.1943 2.73867C28.3427 2.65418 27.8755 2.85837 28.002 2.81612C28.0569 2.795 28.0239 2.80204 27.892 2.84428C27.7766 2.87949 27.6612 2.89357 27.5403 2.88653C27.5733 2.88653 27.6117 2.88653 27.6447 2.88653L27.3864 2.85133C27.4414 2.85837 27.4963 2.87949 27.5513 2.90061L27.3369 2.80908C27.4139 2.84428 27.4853 2.89357 27.5513 2.9499L27.3974 2.80908C27.5788 2.97102 27.6942 3.19634 27.8261 3.41461C27.9415 3.61176 28.2658 3.66809 28.4306 3.66809C28.6835 3.66809 28.9253 3.61176 29.1671 3.50615C29.376 3.41461 29.6123 3.28787 29.7717 3.08368C29.9091 2.90765 30.019 2.72459 29.9915 2.46407C29.9475 2.02048 29.6343 1.68251 29.3595 1.46423C28.8813 1.09106 28.2383 1.1333 27.7162 1.30229C27.4359 1.39382 27.1336 1.54873 26.8918 1.75996C26.6829 1.94303 26.4576 2.16834 26.3257 2.45702C26.1718 2.80204 26.0893 3.2245 26.2432 3.59768C26.3037 3.74554 26.3641 3.87228 26.4686 3.9779C26.6444 4.16097 26.8093 4.24546 27.0292 4.32291C27.3589 4.43557 27.7546 4.42853 28.0844 4.35812C28.8538 4.19617 29.6618 3.81595 30.2059 3.07664C30.4807 2.70346 30.739 2.23875 30.651 1.69659C30.5851 1.30229 30.2938 0.999522 30.0135 0.8587C29.6508 0.675632 29.2605 0.605221 28.8703 0.59818C28.4306 0.591139 27.969 0.654509 27.5513 0.823495C27.0731 1.02064 26.5675 1.28821 26.2157 1.767C25.9794 2.08385 25.7816 2.44998 25.7156 2.88653C25.6661 3.20338 25.6771 3.57656 25.798 3.86524C25.864 4.02719 25.9354 4.18913 26.0509 4.30179C26.2267 4.48486 26.3971 4.58343 26.6169 4.65384C27.1556 4.82283 27.7876 4.68201 28.2822 4.40036C28.7109 4.15392 29.1396 3.79483 29.3045 3.20338C29.354 3.02735 29.365 2.80204 29.3045 2.63305C29.2221 2.42182 29.1231 2.21763 28.9802 2.05568C28.612 1.63322 28.1613 1.47127 27.6777 1.43607C27.3864 1.41495 27.0346 1.52056 26.7653 1.66842C26.562 1.78108 26.2597 1.98527 26.1443 2.25283C26.0564 2.44294 26.0014 2.68938 26.1443 2.86541C26.3092 3.0696 26.551 3.11185 26.7708 3.12593V3.11889Z" fill="#E82C2A"/>
<path d="M36.1639 3.77428C41.7973 3.61937 47.4417 3.54896 53.0752 3.31661C53.5753 3.29548 54.3228 3.11946 54.6031 2.50688C54.8834 1.89431 54.3777 1.63379 53.9765 1.63379C48.3431 1.7042 42.7042 1.92951 37.0707 2.08442C36.5706 2.0985 35.8121 2.28157 35.5373 2.90118C35.2625 3.5208 35.7627 3.78836 36.1694 3.77428H36.1639Z" fill="#E82C2A"/>
<path d="M62.7812 2.36616C62.8912 2.338 62.9956 2.38025 62.6878 2.36616C62.5174 2.338 62.4735 2.33096 62.5504 2.34504C62.5779 2.34504 62.5999 2.35912 62.6219 2.36616L62.5064 2.31688C62.5394 2.33096 62.5669 2.35208 62.5999 2.36616C62.6438 2.39433 62.6878 2.42953 62.7263 2.46474L62.5724 2.32392C62.6658 2.41545 62.7428 2.52107 62.8087 2.65485V2.04227C62.7318 2.20422 62.6493 2.35912 62.5559 2.51403C62.5119 2.59148 62.4625 2.66189 62.4185 2.7323C62.358 2.82383 62.369 2.80271 62.457 2.67597C62.4295 2.71118 62.4075 2.74638 62.38 2.77455C62.2756 2.90833 62.1657 3.03507 62.0503 3.15477C62.0228 3.18293 61.9898 3.21109 61.9623 3.23926C61.8799 3.31671 61.9019 3.29559 62.0393 3.16885C61.9843 3.20405 61.9294 3.26038 61.8799 3.30263C61.8304 3.34487 61.77 3.38712 61.715 3.42937C61.4622 3.61244 61.9074 3.32375 61.7315 3.42233C61.6655 3.45753 61.5996 3.49978 61.5281 3.53498C61.4952 3.55611 61.4622 3.57019 61.4237 3.58427C61.3083 3.6406 61.3523 3.61948 61.5666 3.5209C61.4952 3.54202 61.4237 3.57723 61.3523 3.59835C61.3193 3.61244 61.2808 3.61948 61.2424 3.63356C61.1214 3.66876 61.1709 3.65468 61.3853 3.59835C61.3468 3.60539 61.3083 3.61244 61.2698 3.61948C61.3743 3.59835 61.4842 3.59835 61.5886 3.62652C61.4952 3.59835 61.5117 3.61244 61.6381 3.65468C61.6051 3.6406 61.5776 3.61948 61.5501 3.59131L61.704 3.72509C61.6381 3.66172 61.5886 3.59835 61.5446 3.50682L61.6271 3.68989C61.5776 3.57019 61.5556 3.45049 61.5556 3.31671V3.52794C61.5556 3.32375 61.6051 3.13364 61.6655 2.95057L61.5886 3.16885C61.6436 3.02803 61.7095 2.8872 61.7865 2.76046C61.8029 2.7323 61.8304 2.6971 61.8469 2.66893C61.7425 2.8872 61.748 2.79567 61.8084 2.7323C61.8304 2.71118 61.8579 2.68301 61.8744 2.65485C61.9458 2.55627 61.671 2.83088 61.781 2.73934C61.8524 2.68301 61.9184 2.62668 61.9843 2.57036C62.0173 2.54219 62.0558 2.52107 62.0887 2.4929C62.1217 2.46474 62.2591 2.38025 62.0887 2.4929C61.9184 2.60556 62.0613 2.51403 62.0942 2.4929C62.1272 2.47178 62.1712 2.45066 62.2042 2.42953C62.3031 2.37321 62.6054 2.27463 62.2152 2.40841C62.2921 2.38025 62.369 2.34504 62.4515 2.32392C62.49 2.30984 62.5284 2.30279 62.5724 2.28871C62.7373 2.23943 62.457 2.33096 62.4405 2.32392C62.49 2.34504 62.6274 2.28871 62.6823 2.27463C62.7208 2.27463 62.7648 2.26759 62.8032 2.26055C62.9571 2.23943 62.7208 2.28167 62.6933 2.26055C62.7483 2.28167 62.8417 2.26055 62.8967 2.26055C62.9351 2.26055 63.1 2.28167 62.9186 2.26055C62.7538 2.23943 62.8802 2.26055 62.9186 2.26055C62.9516 2.26759 62.9846 2.28167 63.0176 2.28871C63.1165 2.30984 62.8582 2.20422 62.9461 2.26055C63.0121 2.30279 63.078 2.338 63.144 2.38729L62.9901 2.24647C63.0835 2.33096 63.1605 2.42953 63.2209 2.54923L63.1385 2.36616C63.1825 2.47882 63.2044 2.58444 63.2099 2.71118V2.49994C63.2099 2.64077 63.188 2.76751 63.1495 2.90129L63.2264 2.68301C63.2044 2.73934 63.089 2.93649 63.1934 2.77455C63.3144 2.59852 63.4518 2.53515 63.6221 2.44362C63.8585 2.338 63.9299 2.30279 63.831 2.32392C63.6606 2.36616 63.809 2.34504 64.2817 2.24647C63.8475 2.24647 63.2869 2.40841 62.9626 2.81679C62.8692 2.92945 62.7812 3.06323 62.7428 3.22518C62.6988 3.42233 62.8197 3.66876 62.9681 3.73213C63.5012 3.95041 64.0398 3.88704 64.551 3.59131C64.8807 3.4012 65.2215 3.11252 65.3919 2.69005C65.6117 2.14085 65.5842 1.51419 65.1885 1.10581C64.7488 0.655182 64.1498 0.528443 63.6002 0.549566C62.8747 0.57773 62.1767 0.760798 61.5007 1.08469C60.9566 1.33817 60.3575 1.72543 59.9398 2.24647C59.6265 2.63373 59.3187 3.16181 59.2583 3.73213C59.1923 4.34471 59.4067 4.85167 59.8628 5.09106C60.6213 5.48536 61.5007 5.16147 62.2371 4.83054C63.3418 4.33767 64.3641 3.366 64.9742 2.07748C65.0841 1.84512 65.0841 1.69022 64.9742 1.46491C64.6004 0.718552 63.7266 0.542525 63.1 0.697429C62.7922 0.774881 62.49 0.866415 62.2206 1.07765C62.0723 1.19735 61.8084 1.45082 61.781 1.7043C61.715 2.34504 62.4515 2.42249 62.7867 2.34504L62.7812 2.36616Z" fill="#E82C2A"/>
<path d="M62.0997 3.37363C62.5119 3.37363 63.1385 3.20464 63.3638 2.70472C63.5891 2.20481 63.1769 1.97949 62.8417 1.97949C62.4295 1.97949 61.8029 2.14848 61.5776 2.64839C61.3523 3.14831 61.7645 3.37363 62.0997 3.37363Z" fill="#E82C2A"/>
<path d="M62.7867 3.07675C63.1989 3.07675 63.8255 2.90776 64.0508 2.40785C64.2762 1.90793 63.864 1.68262 63.5287 1.68262C63.1165 1.68262 62.4899 1.8516 62.2646 2.35152C62.0393 2.85144 62.4515 3.07675 62.7867 3.07675Z" fill="#E82C2A"/>
<path d="M62.5558 3.37363C62.968 3.37363 63.5945 3.20464 63.8199 2.70472C64.0452 2.20481 63.633 1.97949 63.2977 1.97949C62.8855 1.97949 62.259 2.14848 62.0337 2.64839C61.8083 3.14831 62.2205 3.37363 62.5558 3.37363Z" fill="#E82C2A"/>
<path d="M72.6742 5.42114L81.4789 4.99868C84.4138 4.85786 87.3816 4.85082 90.311 4.55509C90.7122 4.51284 91.4157 4.21008 91.5696 3.66791C91.7235 3.12575 91.2728 2.92156 90.9101 2.91452C88.0301 2.88635 85.1282 3.17504 82.2483 3.31586L73.5811 3.73128C73.0809 3.75241 72.328 3.92843 72.0477 4.54805C71.7893 5.12542 72.2675 5.44227 72.6797 5.42114H72.6742Z" fill="#E82C2A"/>
<path d="M97.1482 3.83746C97.1482 3.83746 97.1922 3.90083 97.2087 3.93603L97.1262 3.75296C97.1537 3.81633 97.1647 3.87266 97.1647 3.94307V3.73184C97.1647 3.80225 97.1482 3.86562 97.1262 3.92899L97.2087 3.71072C97.1812 3.78113 97.1482 3.83746 97.1097 3.89379L97.2581 3.68255C97.2581 3.68255 97.2087 3.73888 97.1812 3.76705C97.3626 3.6051 97.412 3.56285 97.3296 3.62622C97.2361 3.69664 97.3021 3.65439 97.5219 3.49949C97.4175 3.55581 97.4945 3.52061 97.7528 3.40091C98.0276 3.33754 98.11 3.31642 97.9946 3.33754C98.1485 3.30938 98.3024 3.31642 98.4508 3.35162C98.4343 3.35162 98.4178 3.34458 98.4013 3.33754L98.6156 3.42907C98.5827 3.41499 98.5552 3.40091 98.5277 3.37275L98.6816 3.51357C98.6211 3.45724 98.5717 3.39387 98.5387 3.30938L98.6211 3.49244C98.5772 3.38683 98.5607 3.28121 98.5552 3.16151V3.37275C98.5552 3.22488 98.5827 3.08406 98.6266 2.95028L98.5442 3.16855C98.5772 3.07702 98.6211 2.99957 98.6706 2.92212L98.5222 3.13335C98.5222 3.13335 98.5607 3.08406 98.5827 3.0559C98.6651 2.95028 98.4288 3.19672 98.4398 3.18968C98.5662 3.08406 98.1375 3.3657 98.2804 3.29529L98.0386 3.40091C98.1155 3.37275 98.088 3.37979 97.9506 3.42203C97.8242 3.4502 97.7857 3.45724 97.8462 3.4502C97.9396 3.43612 97.8682 3.43612 97.6428 3.46428C97.6868 3.46428 97.8132 3.47836 97.6209 3.4502C97.412 3.42203 97.6538 3.47132 97.7033 3.49244L97.489 3.40091C97.6099 3.45724 97.7198 3.52765 97.8187 3.61918L97.6648 3.47836C97.8077 3.61214 97.9341 3.77409 98.0276 3.9642L97.9451 3.78113C97.9891 3.8797 98.0166 3.97124 98.0166 4.08389V3.87266C98.0166 3.94307 98.0056 3.9994 97.9836 4.06277L98.066 3.8445C98.0495 3.88674 98.0331 3.91491 98.0111 3.95011L98.1595 3.73888C98.1595 3.73888 98.121 3.78817 98.1045 3.80929C98.2639 3.59806 98.3244 3.61214 98.2254 3.69664C98.1045 3.79521 98.5057 3.52765 98.3958 3.58398C98.2364 3.66847 98.6101 3.49244 98.5992 3.49949C98.5662 3.50653 98.5387 3.52061 98.5057 3.53469C98.3463 3.59102 98.863 3.45724 98.6926 3.4854C98.6321 3.49244 98.3958 3.52061 98.6486 3.49949C98.9014 3.47836 98.6706 3.49948 98.6101 3.49244C98.5497 3.4854 98.4892 3.4854 98.4288 3.47836C98.3189 3.46428 98.7091 3.52765 98.5717 3.49949C98.5387 3.49949 98.5057 3.4854 98.4727 3.47836C98.4068 3.46428 98.3463 3.44316 98.2859 3.41499L98.5002 3.50653C98.4233 3.47132 98.3463 3.42907 98.2749 3.37275L98.4288 3.51357C98.3518 3.44316 98.2914 3.3657 98.2419 3.26713L98.3244 3.4502C98.2749 3.33754 98.2474 3.22488 98.2419 3.09814V3.30938C98.2419 3.18264 98.2694 3.06294 98.3079 2.95028L98.2254 3.16855C98.2639 3.07702 98.3079 2.99957 98.3573 2.92212L98.2089 3.13335C98.2419 3.0911 98.2749 3.0559 98.3079 3.01365C98.132 3.23192 98.1155 3.18968 98.2089 3.11223C97.9946 3.24601 97.9396 3.28121 98.0386 3.22488C98.11 3.18968 98.0825 3.20376 97.9506 3.26009C97.8187 3.31642 97.7912 3.3305 97.8627 3.30233C97.6209 3.35866 97.5604 3.37275 97.6813 3.35162C97.8682 3.32346 97.39 3.35162 97.5659 3.3657C97.5934 3.3657 97.6264 3.3657 97.6538 3.3657C97.467 3.33754 97.423 3.3305 97.5274 3.35162C97.6319 3.37979 97.7308 3.40795 97.8352 3.4502L97.6209 3.35866C97.8627 3.45724 98.1045 3.57694 98.3189 3.76705L98.165 3.62622C98.3079 3.76 98.4398 3.90787 98.5332 4.10502L98.4508 3.92195C98.4947 4.02757 98.5222 4.13318 98.5277 4.25288V4.04165C98.5277 4.1191 98.5112 4.18951 98.4892 4.25992L98.5717 4.04165C98.5497 4.09094 98.5277 4.13318 98.5002 4.17543L98.6486 3.9642C98.6486 3.9642 98.6102 3.9994 98.6047 4.02052L98.764 3.86562L98.9729 3.73184C98.83 3.81633 99.3027 3.6051 99.1707 3.64735C99.0388 3.68959 99.517 3.56285 99.3906 3.59102C99.2092 3.62622 99.7039 3.59102 99.517 3.57694C99.495 3.57694 99.473 3.57694 99.451 3.57694C99.44 3.57694 99.4291 3.57694 99.4181 3.57694C99.3356 3.5699 99.3961 3.57694 99.5939 3.59806C99.3961 3.55581 99.1982 3.51357 99.0059 3.43612L99.2202 3.52765C99.0993 3.47132 98.9839 3.40795 98.874 3.31642L99.0278 3.45724C98.9454 3.37979 98.874 3.28825 98.819 3.1756L98.9014 3.35866C98.8575 3.25305 98.8355 3.14039 98.8355 3.02069V3.23192C98.8355 3.11223 98.8575 2.99957 98.9014 2.88691L98.819 3.10518C98.841 3.0559 98.863 3.00661 98.8904 2.96436L98.7421 3.1756C98.7421 3.1756 98.775 3.14039 98.786 3.11927C98.7366 3.18968 98.4947 3.3657 98.4068 3.41499C98.4508 3.39387 98.0386 3.5699 98.1705 3.52061C98.0441 3.5699 97.9176 3.59102 97.7912 3.59806C97.6648 3.59806 97.6374 3.59806 97.7033 3.61214C97.9506 3.63327 98.2089 3.54877 98.4398 3.4502C98.6486 3.35866 98.885 3.23192 99.0443 3.02773C99.1378 2.90803 99.2312 2.77425 99.2697 2.60527C99.3191 2.38699 99.1872 2.16168 99.0388 2.08423C98.5497 1.83075 97.9836 1.92228 97.5054 2.1828C97.1922 2.35179 96.8844 2.59823 96.692 2.95732C96.5162 3.28825 96.4227 3.78817 96.5711 4.16135C96.791 4.70351 97.2087 4.93586 97.6428 5.09077C98.077 5.24567 98.5387 5.29496 98.9894 5.25975C99.2972 5.23159 99.6049 5.11893 99.8907 4.97107C100.209 4.80208 100.561 4.52044 100.737 4.1191C100.847 3.87266 100.902 3.6051 100.842 3.32346C100.798 3.10518 100.677 2.88691 100.556 2.71793C100.297 2.37291 99.9567 2.15464 99.6104 1.99269C99.3851 1.88708 99.1543 1.7885 98.9179 1.73922C98.4782 1.65472 98.0441 1.68289 97.6099 1.80963C97.0493 1.97861 96.4447 2.37995 96.115 3.00661C96.016 3.19672 95.9336 3.42907 95.9171 3.65439C95.9006 3.97828 95.9501 4.21063 96.0985 4.47819C96.3128 4.86545 96.736 5.04852 97.0822 5.12597C97.4999 5.21751 97.9561 5.24567 98.3793 5.16118C98.9509 5.04148 99.5829 4.81617 100.012 4.28104C100.166 4.09094 100.325 3.8445 100.347 3.55581C100.374 3.21784 100.286 2.9714 100.127 2.70384C99.4071 1.50686 97.8792 1.59135 96.9723 2.35883C96.6096 2.6616 96.2469 3.14743 96.2249 3.73888C96.2139 4.06277 96.2468 4.25992 96.3843 4.52748C96.5217 4.79504 96.769 4.92178 96.9943 4.99219C97.456 5.12597 97.9726 4.99219 98.4013 4.76688C98.7366 4.59085 99.0169 4.33737 99.2532 3.98532C99.4895 3.63327 99.5775 3.06998 99.2917 2.70384C99.1323 2.50669 98.874 2.45036 98.6651 2.44332C98.3683 2.42924 98.0221 2.52078 97.7528 2.67568C97.5274 2.80242 97.2581 2.97845 97.1317 3.26009C97.0438 3.45724 96.9888 3.68959 97.1317 3.87266L97.1482 3.83746Z" fill="#E82C2A"/>
<path d="M107.294 3.18265C113.543 3.35867 119.781 3.78818 126.008 4.40779C126.486 4.45708 127.261 4.17544 127.514 3.61215C127.788 3.00662 127.277 2.79539 126.893 2.75314C120.671 2.07016 114.433 1.67586 108.195 1.49279C107.7 1.47871 106.931 1.71106 106.662 2.30955C106.392 2.90805 106.892 3.17561 107.294 3.18265Z" fill="#E82C2A"/>
<path d="M133.63 2.5414C133.592 2.67518 133.548 2.80192 133.499 2.92866L133.581 2.71039C133.499 2.92162 133.411 3.13285 133.29 3.30888L133.438 3.09765C133.389 3.16806 133.334 3.23143 133.279 3.28776L133.488 3.09061C133.488 3.09061 133.438 3.13285 133.411 3.15398C133.317 3.22439 133.378 3.18214 133.587 3.04132C133.515 3.07653 133.548 3.06948 133.68 3.00611C133.817 2.94274 133.955 2.9005 134.153 2.88642C134.389 2.87233 134.246 2.88642 134.186 2.87233L134.444 2.90754C134.394 2.9005 134.35 2.88642 134.306 2.87233L134.515 2.95683C134.444 2.92866 134.378 2.88642 134.317 2.83009L134.471 2.96387C134.4 2.89346 134.339 2.81601 134.296 2.71743L134.378 2.9005C134.345 2.82305 134.328 2.74559 134.323 2.6611V2.87233C134.323 2.79488 134.339 2.72447 134.361 2.65406L134.285 2.87233C134.301 2.83009 134.323 2.79488 134.345 2.75968L134.197 2.97091C134.23 2.92866 134.263 2.88642 134.301 2.85121L134.092 3.04836C134.131 3.01316 134.175 2.98499 134.213 2.94979C134.224 2.94274 133.922 3.12581 134.048 3.0554C134.07 3.04132 134.092 3.02724 134.114 3.0202C134.136 3.01316 134.158 2.99907 134.18 2.98499C134.317 2.91458 133.96 3.07653 133.982 3.06948C134.037 3.0554 134.087 3.03428 134.142 3.01316C134.263 2.97091 133.812 3.09061 133.938 3.06244C133.96 3.06244 133.988 3.0554 134.01 3.04836C134.065 3.04132 134.257 3.0202 134.026 3.04132C133.795 3.06244 133.988 3.04132 134.043 3.04132C134.098 3.04132 134.153 3.04132 134.208 3.0554L133.949 3.0202C134.092 3.04132 134.235 3.07653 134.372 3.13285L134.158 3.04836C134.296 3.10469 134.427 3.18214 134.554 3.27368L134.317 2.74559C134.274 2.9005 134.23 3.0554 134.175 3.20326L134.257 2.98499C134.175 3.20326 134.081 3.40041 133.955 3.58348L134.103 3.37225C134.032 3.47083 133.96 3.56236 133.878 3.63981L134.087 3.44266C134.059 3.47083 134.032 3.49195 133.999 3.51307C133.889 3.60461 134.202 3.38633 134.18 3.40041C134.153 3.4145 134.125 3.42858 134.098 3.44266C134.081 3.4497 134.466 3.28776 134.301 3.35113C134.202 3.38633 134.087 3.35113 134.51 3.30184C134.488 3.30184 134.46 3.30888 134.438 3.31592C134.317 3.33705 134.774 3.31592 134.625 3.30184C134.598 3.30184 134.565 3.30184 134.537 3.30184L134.796 3.33705C134.73 3.33 134.664 3.30888 134.598 3.28776L134.812 3.37929C134.741 3.34409 134.675 3.30888 134.609 3.25255L134.763 3.39337C134.686 3.32296 134.62 3.23847 134.57 3.13285L134.653 3.31592C134.598 3.18918 134.57 3.04836 134.57 2.9005V3.11173C134.57 2.96387 134.603 2.82305 134.653 2.68927L134.57 2.90754C134.609 2.81601 134.653 2.73151 134.702 2.65406L134.554 2.86529C134.587 2.82305 134.614 2.78784 134.653 2.75264L134.444 2.94979C134.444 2.94979 134.488 2.91458 134.51 2.89346C134.285 3.03428 134.219 3.07653 134.317 3.0202C134.383 2.98499 134.35 2.99907 134.213 3.06244C134.076 3.11877 134.043 3.13285 134.109 3.11173C133.839 3.16806 133.757 3.18918 133.861 3.1751C133.955 3.16102 133.878 3.16806 133.636 3.18918C133.652 3.18918 133.674 3.18918 133.691 3.18918L133.433 3.15398C133.477 3.16102 133.521 3.1751 133.565 3.18918L133.35 3.09765C133.411 3.12581 133.466 3.16102 133.515 3.21031L133.361 3.06948C133.46 3.16102 133.537 3.27368 133.598 3.40746L133.515 3.22439C133.576 3.37225 133.614 3.52715 133.614 3.6891V3.47787C133.614 3.59756 133.592 3.7243 133.576 3.83696C133.499 4.40729 134.109 4.48474 134.411 4.46362C134.911 4.42841 135.433 4.18902 135.757 3.68206C135.95 3.38633 135.994 2.95683 135.9 2.59773C135.807 2.23864 135.604 1.94995 135.345 1.74576C135.213 1.64015 135.059 1.57678 134.911 1.54157C134.548 1.45004 134.186 1.49932 133.828 1.60494C133.323 1.7528 132.861 2.09782 132.531 2.60477C132.202 3.11173 132.125 3.95666 132.531 4.44954C132.762 4.73118 133.081 4.90016 133.389 4.94945C133.96 5.04099 134.521 4.93537 135.054 4.66077C135.51 4.42137 135.911 4.02707 136.208 3.52011C136.406 3.18214 136.538 2.7808 136.642 2.3865C136.703 2.1471 136.543 1.95699 136.406 1.85842C135.928 1.50636 135.334 1.3585 134.785 1.38667C134.4 1.40779 134.021 1.46412 133.647 1.61902C133.207 1.80209 132.768 2.0274 132.416 2.4217C132.163 2.70335 131.976 3.09061 132.031 3.5342C132.059 3.76655 132.196 3.99187 132.344 4.13973C133.07 4.84384 134.153 4.61852 134.878 4.03411C135.169 3.80176 135.428 3.49195 135.609 3.12581C135.752 2.83009 135.862 2.5062 135.961 2.18231C136.032 1.95699 135.856 1.73872 135.724 1.64719C135.51 1.50636 135.186 1.49932 134.961 1.54157C134.46 1.6331 133.845 1.90066 133.641 2.55549L133.63 2.5414Z" fill="#E82C2A"/>
<path d="M143.787 3.9859H151.921C154.631 3.9859 157.379 4.15488 160.083 3.94365C160.479 3.91549 161.182 3.59864 161.331 3.06352C161.479 2.52839 161.028 2.34533 160.677 2.31716C158.038 2.09889 155.334 2.29604 152.691 2.29604H144.694C144.199 2.29604 143.43 2.50023 143.161 3.10576C142.891 3.7113 143.386 3.97886 143.793 3.97886L143.787 3.9859Z" fill="#E82C2A"/>
<path d="M168.525 2.409C168.487 2.4442 168.443 2.47237 168.399 2.50757L168.657 2.33859C168.596 2.38084 168.53 2.409 168.465 2.4442L168.767 2.31042C168.712 2.33155 168.651 2.35267 168.596 2.36675L168.91 2.2893C168.849 2.30338 168.794 2.31042 168.734 2.31747L169.025 2.29634C168.954 2.29634 168.888 2.29634 168.816 2.29634L169.075 2.33155H169.047L169.492 2.93708C169.52 2.83851 169.547 2.73289 169.58 2.64136L169.503 2.85963C169.558 2.71177 169.624 2.57094 169.712 2.4442L169.564 2.65544C169.613 2.58503 169.668 2.52166 169.723 2.47237L169.514 2.66952C169.547 2.64136 169.58 2.61319 169.613 2.59207L169.355 2.76105C169.388 2.73993 169.415 2.72585 169.448 2.71177L169.146 2.84555C169.146 2.84555 169.196 2.82442 169.223 2.81738L168.91 2.89483C168.943 2.88779 168.976 2.88075 169.009 2.88075L168.717 2.90188C168.756 2.90188 168.794 2.90188 168.833 2.90188L168.574 2.86667C168.635 2.87371 168.69 2.88779 168.745 2.91596L168.536 2.83146C168.635 2.87371 168.723 2.93004 168.805 3.00749L168.651 2.87371C168.778 2.99341 168.888 3.13423 168.97 3.31026L168.888 3.12719C168.959 3.28913 169.003 3.46516 169.009 3.65527V3.44404C169.009 3.57078 168.987 3.69752 168.948 3.81722L169.025 3.59894C168.992 3.69048 168.948 3.77497 168.893 3.84538L169.042 3.63415C169.003 3.69048 168.959 3.73272 168.915 3.77497L169.124 3.57782C169.086 3.61302 169.042 3.64823 168.998 3.67639L169.256 3.50741C169.217 3.52853 169.179 3.54965 169.135 3.57078L169.437 3.437C169.399 3.45108 169.355 3.46516 169.311 3.47924L169.624 3.40179C169.58 3.40883 169.542 3.41587 169.498 3.42291L169.789 3.40179C169.734 3.40179 169.674 3.40179 169.619 3.40179L169.877 3.437C169.822 3.42996 169.767 3.41587 169.712 3.38771L169.926 3.47924C169.85 3.44404 169.784 3.40179 169.718 3.34546L169.872 3.48628C169.784 3.40179 169.712 3.30322 169.657 3.18352L169.74 3.36659C169.663 3.19056 169.624 2.99341 169.624 2.78922V3.00045C169.624 2.82442 169.652 2.65544 169.712 2.49349L169.63 2.71177C169.668 2.61319 169.712 2.52166 169.767 2.43716L169.619 2.6484C169.652 2.59911 169.69 2.55686 169.729 2.52166L169.52 2.71881C169.547 2.69064 169.58 2.66952 169.613 2.6484L169.349 2.81738C169.382 2.79626 169.415 2.78218 169.448 2.76105L169.146 2.89483C169.179 2.88075 169.212 2.86667 169.25 2.85963L168.937 2.93708C168.97 2.93004 169.009 2.923 169.042 2.923L168.75 2.94412C168.8 2.94412 168.849 2.94412 168.899 2.94412L168.64 2.90892C168.706 2.91596 168.767 2.93708 168.827 2.96524L168.613 2.87371C168.701 2.91596 168.783 2.96524 168.86 3.03566L168.706 2.89483C168.805 2.98637 168.888 3.09903 168.954 3.23281L168.871 3.04974C168.91 3.14127 168.937 3.23281 168.954 3.33138L169.185 2.69064C169.075 2.83146 168.954 2.9582 168.827 3.0779L169.036 2.88075C168.888 3.02157 168.728 3.14127 168.563 3.24689L168.827 3.0779C168.679 3.16944 168.531 3.25393 168.371 3.32434L168.668 3.1976C168.531 3.25393 168.399 3.3173 168.261 3.37363L168.552 3.24689C168.509 3.26801 168.459 3.28913 168.415 3.30322C168.168 3.39475 167.865 3.54261 167.679 3.78201C167.563 3.92283 167.459 4.07774 167.459 4.29601C167.448 4.36642 167.459 4.42979 167.497 4.48612C167.53 4.59173 167.596 4.66214 167.684 4.70439C167.909 4.83113 168.173 4.84521 168.415 4.80297C169.124 4.66919 169.839 4.35234 170.432 3.81722C170.581 3.68343 170.734 3.54261 170.872 3.38771C171.07 3.16944 171.333 2.90188 171.273 2.5287C171.257 2.43716 171.229 2.34563 171.191 2.26114C171.125 2.11327 171.059 1.96541 170.96 1.84571C170.416 1.19089 169.602 1.17681 168.915 1.381C168.228 1.58519 167.53 2.14144 167.338 3.0427C167.283 3.29618 167.283 3.59894 167.327 3.85242C167.343 3.951 167.371 4.04253 167.409 4.13406C167.47 4.28193 167.536 4.42979 167.629 4.54245C168.157 5.20431 169.009 5.15502 169.668 4.95083C170.328 4.74664 171.07 4.21856 171.284 3.33842C171.405 2.83851 171.24 2.2893 170.976 1.91612C170.542 1.31763 169.828 1.12752 169.218 1.26834C168.679 1.38804 168.118 1.63448 167.728 2.15552C167.602 2.32451 167.481 2.50053 167.393 2.71177C167.316 2.90892 167.239 3.10607 167.189 3.3173C167.107 3.65527 167.415 3.89467 167.635 3.92987C167.8 3.951 167.959 3.9862 168.124 3.97916C168.415 3.96508 168.657 3.92987 168.943 3.84538C169.294 3.7468 169.652 3.5567 169.954 3.31026C170.119 3.17648 170.35 2.95116 170.394 2.6836C170.432 2.45125 170.322 2.24705 170.157 2.15552C169.926 2.02174 169.646 2.00766 169.393 2.0499C169.091 2.10623 168.778 2.21185 168.52 2.43012L168.525 2.409Z" fill="#E82C2A"/>
<path d="M178.039 3.85922C183.82 3.57758 189.613 3.65503 195.39 4.10566C195.879 4.14087 196.659 3.87331 196.923 3.2889C197.198 2.67632 196.687 2.44397 196.291 2.4158C190.515 1.96517 184.722 1.88068 178.94 2.16937C178.44 2.19753 177.687 2.35948 177.407 2.98613C177.148 3.5635 177.626 3.88035 178.039 3.85922Z" fill="#E82C2A"/>
</g>
<defs>
<clipPath id="clip0_1398_5594">
<rect width="197" height="4.84426" fill="white" transform="translate(0 0.577637)"/>
</clipPath>
</defs>
</svg>
