<svg width="229" height="16" viewBox="0 0 229 16" fill="none" xmlns="http://www.w3.org/2000/svg">
<path d="M49.8403 3.2259C71.5929 2.76189 93.3573 2.4636 115.122 2.33102C136.886 2.19844 158.449 2.24264 180.107 2.45255C192.41 2.57407 204.725 2.73979 217.028 2.96075L218.698 0.695922C190.61 1.14889 162.535 1.71233 134.459 2.38626C106.383 3.06019 78.307 3.84459 50.2311 4.75052C34.4702 5.25873 18.7212 5.78903 2.9604 6.36352C2.03677 6.39667 0.651334 6.61763 0.130315 7.45727C-0.355181 8.24168 0.544762 8.65045 1.29077 8.62835C30.5508 7.93233 59.8344 7.86605 89.1063 8.44054C118.378 9.01503 147.626 10.2414 176.839 12.0974C193.251 13.1359 209.651 14.3843 226.028 15.8316C226.916 15.909 228.384 15.5002 228.858 14.7379C229.379 13.9093 228.408 13.622 227.697 13.5668C198.556 10.9926 169.343 9.04818 140.107 7.74452C110.871 6.44086 81.587 5.78903 52.3152 5.77798C35.8675 5.77798 19.4199 5.9658 2.97224 6.36352L1.30261 8.62835C29.3666 7.60089 57.4425 6.69496 85.5183 5.88846C113.594 5.09301 141.67 4.39699 169.746 3.82249C185.507 3.5021 201.279 3.20381 217.04 2.94971C217.964 2.93866 219.361 2.68455 219.87 1.85596C220.38 1.02736 219.444 0.695922 218.71 0.684874C196.934 0.309244 175.181 0.0772369 153.417 0.0219971C131.652 -0.0332427 110.089 0.0661889 88.4313 0.342388C76.1281 0.497059 63.8131 0.70697 51.51 0.972121C50.5863 0.994217 49.1891 1.23727 48.6799 2.06587C48.1944 2.85027 49.0943 3.25905 49.8403 3.23695V3.2259Z" fill="#E82C2A"/>
</svg>
