<svg width="268" height="14" viewBox="0 0 268 14" fill="none" xmlns="http://www.w3.org/2000/svg">
<path fill-rule="evenodd" clip-rule="evenodd" d="M47.9451 5.23483C45.0288 5.78061 42.2918 6.57076 39.8236 7.67861C39.5548 7.8008 39.4733 7.97182 39.4488 8.04514C39.4081 8.17547 39.4244 8.29772 39.4896 8.41176C39.5303 8.48507 39.5955 8.5747 39.734 8.63172C39.8318 8.67245 40.0843 8.70499 40.4183 8.69685C40.9885 8.6887 41.8683 8.62356 42.2919 8.62356C43.7418 8.63985 45.1918 8.63164 46.6417 8.65608C51.2605 8.73754 52.0669 8.8027 58.0052 8.75383C64.9374 8.69681 71.8859 8.59906 78.8262 8.45243C56.7671 9.67432 34.7406 11.0999 12.8281 12.4276C12.5837 12.4439 12.3963 12.6558 12.4126 12.9002C12.4208 13.1527 12.6407 13.3401 12.885 13.3238C64.0169 10.2283 115.711 6.5789 167.234 6.34267C169.775 6.39969 172.309 6.45668 174.834 6.5137C190.091 6.87212 205.357 7.30388 220.598 7.97185C225.558 8.19179 230.519 8.43615 235.488 8.66423C236.955 8.7294 238.429 8.79456 239.903 8.85973C241.093 8.9086 244.156 9.08784 244.587 9.09599C244.978 9.10414 245.076 8.75391 245.084 8.73762C245.109 8.62358 245.092 8.49318 244.995 8.37099C244.97 8.33841 244.905 8.24884 244.758 8.20811C244.734 8.20811 244.62 8.19178 244.384 8.16734C232.132 7.1654 219.848 6.473 207.54 6.03312C209.193 6.04941 210.847 6.05759 212.501 6.07389C225.249 6.17164 238.03 6.52191 250.77 6.07389C253.67 5.97614 256.578 5.86205 259.47 5.72357C261.417 5.63396 266.426 5.74802 267.135 5.53623C267.461 5.44662 267.534 5.21851 267.542 5.10447C267.551 4.97414 267.526 4.82751 267.379 4.69717C267.314 4.63201 267.111 4.52616 266.728 4.4447C254.224 1.73211 239.594 2.49777 226.862 1.7402C192.282 -0.337007 157.825 1.04786 123.254 2.31048C93.4155 3.40203 63.577 3.45903 33.7549 4.94159C22.8393 5.47922 11.5818 4.86017 0.821014 6.91294C0.576636 6.96182 0.421813 7.18981 0.462542 7.43419C0.511418 7.67857 0.747669 7.84154 0.992046 7.79266C11.7039 5.74804 22.9208 6.37525 33.7956 5.83762C38.5121 5.60139 43.2286 5.4059 47.9451 5.23483ZM140.197 5.83762C121.926 5.55252 103.655 5.40585 85.3674 5.49546C72.8227 5.55248 54.5433 3.16582 42.0801 7.72753C42.1697 7.72753 42.2429 7.72753 42.3081 7.72753C43.758 7.74382 45.2081 7.72746 46.658 7.76005C51.2686 7.84151 52.075 7.90667 57.9971 7.8578C73.1403 7.72746 88.3243 7.40168 103.459 6.89663C115.719 6.48934 127.962 6.12273 140.197 5.83762ZM263.795 4.78677C251.976 2.7177 238.576 3.33688 226.805 2.63633C192.258 0.559123 157.825 1.94389 123.287 3.20651C107.85 3.77672 92.4217 4.06181 77.0015 4.41209C79.9585 4.52613 82.7852 4.60757 85.3674 4.59943C111.508 4.46909 137.64 4.81943 163.78 5.37335C180.015 5.12897 196.249 5.03937 212.509 5.1697C225.249 5.2756 238.005 5.61773 250.746 5.17786C253.637 5.0801 256.537 4.96602 259.429 4.82754C260.415 4.78681 262.199 4.79491 263.795 4.78677Z" fill="#E82C2A"/>
</svg>
